<?xml version="1.0" encoding="UTF-8" standalone="no"?>
<svg
   xmlns:dc="http://purl.org/dc/elements/1.1/"
   xmlns:cc="http://creativecommons.org/ns#"
   xmlns:rdf="http://www.w3.org/1999/02/22-rdf-syntax-ns#"
   xmlns:svg="http://www.w3.org/2000/svg"
   xmlns="http://www.w3.org/2000/svg"
   width="100"
   height="100"
   viewBox="0 0 100 100"
   version="1.1"
   id="svg981">
  <defs
     id="defs975" />
  <g
     id="layer4"
     style="display:inline">
    <path
       style="fill:#999999;fill-opacity:1;stroke:none;stroke-width:1.08086944"
       d="M -0.35742188 -0.0625 L -0.35742188 100.58203 L 2.3222656 100.58203 L 2.3222656 -0.0625 L -0.35742188 -0.0625 z M 4.6425781 -0.0625 L 4.6425781 100.58203 L 8.0351562 100.58203 L 8.0351562 -0.0625 L 4.6425781 -0.0625 z M 9.1074219 -0.0625 L 9.1074219 100.58203 L 12.142578 100.58203 L 12.142578 -0.0625 L 9.1074219 -0.0625 z M 14.039062 -0.0625 L 14.039062 100.58203 L 17.253906 100.58203 L 17.253906 -0.0625 L 14.039062 -0.0625 z M 18.183594 -0.0625 L 18.183594 100.58203 L 23.234375 100.58203 L 23.234375 76.132812 C 21.027336 75.228292 19.46875 73.11356 19.46875 70.666016 L 19.46875 35.056641 C 19.46875 32.609098 21.027338 30.494366 23.234375 29.589844 L 23.234375 -0.0625 L 18.183594 -0.0625 z M 25.53125 -0.0625 L 25.53125 29.125 C 25.56343 29.124516 25.594663 29.121094 25.626953 29.121094 L 28.744141 29.121094 L 28.744141 -0.0625 L 25.53125 -0.0625 z M 28.75 -0.0625 L 28.75 29.121094 L 30.535156 29.121094 L 30.535156 -0.0625 L 28.75 -0.0625 z M 31.964844 -0.0625 L 31.964844 29.121094 L 35.384766 29.121094 L 36.964844 27.457031 L 36.964844 -0.0625 L 31.964844 -0.0625 z M 38.214844 -0.0625 L 38.214844 26.140625 L 41.019531 23.1875 L 43.035156 23.1875 L 43.035156 -0.0625 L 38.214844 -0.0625 z M 44.607422 -0.0625 L 44.607422 23.1875 L 48.357422 23.1875 L 48.357422 -0.0625 L 44.607422 -0.0625 z M 49.464844 -0.0625 L 49.464844 23.1875 L 54.464844 23.1875 L 54.464844 -0.0625 L 49.464844 -0.0625 z M 57.677734 -0.0625 L 57.677734 23.1875 L 59.464844 23.1875 L 59.464844 -0.0625 L 57.677734 -0.0625 z M 61.072266 -0.0625 L 61.072266 24.853516 L 65.125 29.121094 L 65.892578 29.121094 L 65.892578 -0.0625 L 61.072266 -0.0625 z M 69.285156 -0.0625 L 69.285156 29.121094 L 72.322266 29.121094 L 72.322266 -0.0625 L 69.285156 -0.0625 z M 75.177734 -0.0625 L 75.177734 29.136719 C 75.93577 29.171759 76.658816 29.334838 77.322266 29.613281 L 77.322266 -0.0625 L 75.177734 -0.0625 z M 79.822266 -0.0625 L 79.822266 31.533203 C 80.584088 32.521037 81.041016 33.738406 81.041016 35.056641 L 81.041016 70.666016 C 81.041016 71.984251 80.584088 73.20162 79.822266 74.189453 L 79.822266 100.58203 L 85.177734 100.58203 L 85.177734 -0.0625 L 79.822266 -0.0625 z M 86.964844 -0.0625 L 86.964844 100.58203 L 89.822266 100.58203 L 89.822266 -0.0625 L 86.964844 -0.0625 z M 91.607422 -0.0625 L 91.607422 100.58203 L 94.607422 100.58203 L 94.607422 -0.0625 L 91.607422 -0.0625 z M 97.464844 -0.0625 L 97.464844 100.58203 L 100.01953 100.59766 L 100.01953 -0.0625 L 97.464844 -0.0625 z M 50.255859 38.023438 C 49.989003 38.023438 49.728378 38.04955 49.464844 38.0625 L 49.464844 67.660156 C 49.728363 67.673106 49.989019 67.699219 50.255859 67.699219 C 51.717537 67.699219 53.124871 67.488525 54.464844 67.121094 L 54.464844 38.601562 C 53.124871 38.234131 51.717537 38.023438 50.255859 38.023438 z M 48.357422 38.148438 C 47.048914 38.304051 45.793229 38.616325 44.607422 39.068359 L 44.607422 66.652344 C 45.79334 67.104434 47.04878 67.418608 48.357422 67.574219 L 48.357422 38.148438 z M 43.035156 39.763672 C 41.163208 40.725014 39.526336 42.048781 38.214844 43.636719 L 38.214844 62.085938 C 39.526321 63.673794 41.163268 64.997684 43.035156 65.958984 L 43.035156 39.763672 z M 57.677734 39.867188 L 57.677734 65.855469 C 58.304163 65.522069 58.895544 65.137934 59.464844 64.726562 L 59.464844 40.996094 C 58.895544 40.584725 58.304163 40.200587 57.677734 39.867188 z M 61.072266 42.3125 L 61.072266 63.410156 C 63.895853 60.719906 65.648436 56.987607 65.648438 52.861328 C 65.648438 48.735049 63.895853 45.00275 61.072266 42.3125 z M 36.964844 45.404297 C 35.636567 47.597595 34.861328 50.140154 34.861328 52.861328 C 34.861328 55.582687 35.6364 58.124961 36.964844 60.318359 L 36.964844 45.404297 z M 77.322266 76.109375 C 76.658835 76.387802 75.935744 76.550894 75.177734 76.585938 L 75.177734 100.58203 L 77.322266 100.58203 L 77.322266 76.109375 z M 25.53125 76.597656 L 25.53125 100.58203 L 28.744141 100.58203 L 28.744141 76.601562 L 25.626953 76.601562 C 25.594663 76.601562 25.56343 76.598156 25.53125 76.597656 z M 28.75 76.601562 L 28.75 100.58203 L 30.535156 100.58203 L 30.535156 76.601562 L 28.75 76.601562 z M 31.964844 76.601562 L 31.964844 100.58203 L 36.964844 100.58203 L 36.964844 76.601562 L 31.964844 76.601562 z M 38.214844 76.601562 L 38.214844 100.58203 L 43.035156 100.58203 L 43.035156 76.601562 L 38.214844 76.601562 z M 44.607422 76.601562 L 44.607422 100.58203 L 48.357422 100.58203 L 48.357422 76.601562 L 44.607422 76.601562 z M 49.464844 76.601562 L 49.464844 100.58203 L 54.464844 100.58203 L 54.464844 76.601562 L 49.464844 76.601562 z M 57.677734 76.601562 L 57.677734 100.58203 L 59.464844 100.58203 L 59.464844 76.601562 L 57.677734 76.601562 z M 61.072266 76.601562 L 61.072266 100.58203 L 65.892578 100.58203 L 65.892578 76.601562 L 61.072266 76.601562 z M 69.285156 76.601562 L 69.285156 100.58203 L 72.322266 100.58203 L 72.322266 76.601562 L 69.285156 76.601562 z "
       id="path1883" />
  </g>
  <metadata
     id="metadata820">
    <rdf:RDF>
      <cc:Work
         rdf:about="">
        <dc:title></dc:title>
      </cc:Work>
    </rdf:RDF>
  </metadata>
</svg>
