<?xml version="1.0" encoding="UTF-8" standalone="no"?>
<svg
   xmlns:dc="http://purl.org/dc/elements/1.1/"
   xmlns:cc="http://creativecommons.org/ns#"
   xmlns:rdf="http://www.w3.org/1999/02/22-rdf-syntax-ns#"
   xmlns:svg="http://www.w3.org/2000/svg"
   xmlns="http://www.w3.org/2000/svg"
   id="svg4517"
   version="1.1"
   viewBox="0 0 13.229166 13.229167"
   height="50"
   width="50">
  <defs
     id="defs4511">
    <marker
       style="overflow:visible"
       id="Arrow1Lstart"
       refX="0.0"
       refY="0.0"
       orient="auto">
      <path
         transform="scale(0.8) translate(12.5,0)"
         style="fill-rule:evenodd;stroke:#000000;stroke-width:1pt;stroke-opacity:1;fill:#000000;fill-opacity:1"
         d="M 0.0,0.0 L 5.0,-5.0 L -12.5,0.0 L 5.0,5.0 L 0.0,0.0 z "
         id="path5153" />
    </marker>
  </defs>
  <metadata
     id="metadata4514">
    <rdf:RDF>
      <cc:Work
         rdf:about="">
        <dc:format>image/svg+xml</dc:format>
        <dc:type
           rdf:resource="http://purl.org/dc/dcmitype/StillImage" />
        <dc:title></dc:title>
      </cc:Work>
    </rdf:RDF>
  </metadata>
  <g
     transform="translate(0,-283.77082)"
     id="layer1">
    <path
       style="stroke-width:0.26458332;stroke:none;stroke-opacity:1"
       id="path4"
       d="m 5.5285003,292.37343 v -3.70416 c 0,-0.29104 -0.238125,-0.52917 -0.529167,-0.52917 H 1.295167 c -0.2910417,0 -0.52916672,0.23813 -0.52916672,0.52917 v 3.70416 c 0,0.29105 0.23812502,0.52917 0.52916672,0.52917 h 3.7041663 c 0.291042,0 0.529167,-0.23812 0.529167,-0.52917 z m -3.307292,-1.45521 0.661459,0.7964 0.926041,-1.19327 1.190625,1.5875 H 1.295167 Z" />
    <g
       transform="matrix(0.26458333,0,0,0.26458333,7.1073838,287.26002)"
       id="Outline_1_">
      <g
         id="ui_x5F_spec_x5F_header_copy_4" />
      <g
         id="g9">
        <path
           style="fill:none;opacity:1;stroke:#000000;stroke-opacity:1;stroke-width:0.75590552;stroke-miterlimit:4;stroke-dasharray:0.75590552,0.75590552;stroke-dashoffset:0"
           d="M 19,5 V 19 H 5 V 5 H 19 M 19,3 H 5 C 3.9,3 3,3.9 3,5 v 14 c 0,1.1 0.9,2 2,2 h 14 c 1.1,0 2,-0.9 2,-2 V 5 C 21,3.9 20.1,3 19,3 Z"
           id="XMLID_53_" />
        <path
           style="stroke-width:0.37795276;stroke-miterlimit:4;stroke-dasharray:0.37795276, 0.37795276000000000;stroke:none;stroke-opacity:1;stroke-dashoffset:0"
           d="m 14.14,11.86 -3,3.87 L 9,13.14 6,17 h 12 z"
           id="XMLID_51_" />
      </g>
    </g>
    <path
       id="path2"
       d="M 4.5572993,291.23518 H 10.9073 v 6.35 H 4.5572993 Z"
       style="fill:none;stroke-width:0.26458332" />
    <g
       transform="matrix(0.26458333,0,0,0.26458333,18.139745,278.22313)"
       id="Bounding_Boxes">
      <g
         id="ui_x5F_spec_x5F_header_copy_3" />
      <path
         id="path3"
         d="M 0,0 H 24 V 24 H 0 Z"
         style="fill:none" />
    </g>
    <path
       style="stroke-width:0.26458332"
       id="path7"
       d="m 8.3606496,286.647 0.561266,-0.56127 v 1.49671 l -1.496712,10e-6 0.561266,-0.56127 c -0.619263,-0.61926 -1.625801,-0.61926 -2.2450641,0 -0.1889601,0.18896 -0.3218255,0.4153 -0.3928826,0.65481 l -0.5463037,-1e-5 c 0.084195,-0.37604 0.2712816,-0.73526 0.5650067,-1.02898 0.8269327,-0.82693 2.1664907,-0.82693 2.9934237,0 z" />
  </g>
</svg>
