<?xml version="1.0" encoding="UTF-8" standalone="no"?>
<svg
   xmlns:dc="http://purl.org/dc/elements/1.1/"
   xmlns:cc="http://creativecommons.org/ns#"
   xmlns:rdf="http://www.w3.org/1999/02/22-rdf-syntax-ns#"
   xmlns:svg="http://www.w3.org/2000/svg"
   xmlns="http://www.w3.org/2000/svg"
   id="svg16"
   xml:space="preserve"
   enable-background="new 0 0 24.00 24.00"
   viewBox="0 0 24.00 24.00"
   height="24"
   width="24"
   version="1.1"><metadata
     id="metadata22"><rdf:RDF><cc:Work
         rdf:about=""><dc:format>image/svg+xml</dc:format><dc:type
           rdf:resource="http://purl.org/dc/dcmitype/StillImage" /><dc:title></dc:title></cc:Work></rdf:RDF></metadata><defs
     id="defs20" /><g
     style="display:inline;opacity:0.66199999"
     id="layer1" /><g
     id="layer2"><path
       id="path869"
       d="M 6,8 C 4.89543,8 4,8.89543 4,10 v 3 H 6 V 10 H 9 V 8 Z"
       style="fill:#999999;fill-opacity:1;stroke-linejoin:round" /><path
       id="path867"
       d="m 15,8 v 2 h 3 v 3 h 2 V 10 C 20,8.89543 19.1046,8 18,8 Z"
       style="fill:#999999;fill-opacity:1;stroke-linejoin:round" /><path
       id="path865"
       d="m 4,11 v 3 c 0,1.1046 0.89543,2 2,2 H 9 V 14 H 6 v -3 z"
       style="fill:#999999;fill-opacity:1;stroke-linejoin:round" /><path
       id="path10-4"
       d="m 18,11 v 3 h -3 v 2 h 3 c 1.1046,0 2,-0.8954 2,-2 v -3 z"
       style="fill:#999999;fill-opacity:1;stroke-linejoin:round" /><circle
       r="2"
       cy="4.9981213"
       cx="12"
       id="path838"
       style="fill:#999999;fill-rule:evenodd" /><circle
       r="2"
       cy="19.006851"
       cx="11.997819"
       id="path857"
       style="fill:#999999;fill-rule:evenodd" /><circle
       r="2"
       cy="11.999999"
       cx="11.999338"
       id="path859"
       style="fill:#999999;fill-rule:evenodd" /></g></svg>