<?xml version="1.0" encoding="UTF-8" standalone="no"?>
<svg
   xmlns:dc="http://purl.org/dc/elements/1.1/"
   xmlns:cc="http://creativecommons.org/ns#"
   xmlns:rdf="http://www.w3.org/1999/02/22-rdf-syntax-ns#"
   xmlns:svg="http://www.w3.org/2000/svg"
   xmlns="http://www.w3.org/2000/svg"
   id="svg981"
   version="1.1"
   viewBox="0 0 100 100"
   height="100"
   width="100">
  <defs
     id="defs975" />
  <metadata
     id="metadata978">
    <rdf:RDF>
      <cc:Work
         rdf:about="">
        <dc:format>image/svg+xml</dc:format>
        <dc:type
           rdf:resource="http://purl.org/dc/dcmitype/StillImage" />
        <dc:title></dc:title>
      </cc:Work>
    </rdf:RDF>
  </metadata>
  <g
     style="display:inline"
     id="layer4">
    <path
       id="path1883"
       d="M -0.35742188 -0.0625 L -0.35742188 100.58203 L 2.3222656 100.58203 L 2.3222656 -0.0625 L -0.35742188 -0.0625 z M 4.6425781 -0.0625 L 4.6425781 100.58203 L 8.0351562 100.58203 L 8.0351562 -0.0625 L 4.6425781 -0.0625 z M 9.1074219 -0.0625 L 9.1074219 100.58203 L 12.142578 100.58203 L 12.142578 89.369141 L 12.078125 89.304688 C 10.55384 87.780403 10.55384 85.327019 12.078125 83.802734 L 12.142578 83.738281 L 12.142578 -0.0625 L 9.1074219 -0.0625 z M 14.039062 -0.0625 L 14.039062 81.841797 L 17.253906 78.626953 L 17.253906 -0.0625 L 14.039062 -0.0625 z M 18.183594 -0.0625 L 18.183594 77.697266 L 21.154297 74.726562 C 20.113165 73.662255 19.46875 72.234935 19.46875 70.666016 L 19.46875 35.056641 C 19.46875 32.609098 21.027338 30.494366 23.234375 29.589844 L 23.234375 -0.0625 L 18.183594 -0.0625 z M 25.53125 -0.0625 L 25.53125 29.125 C 25.56343 29.124516 25.594663 29.121094 25.626953 29.121094 L 28.744141 29.121094 L 28.744141 -0.0625 L 25.53125 -0.0625 z M 28.75 -0.0625 L 28.75 29.121094 L 30.535156 29.121094 L 30.535156 -0.0625 L 28.75 -0.0625 z M 31.964844 -0.0625 L 31.964844 29.121094 L 35.384766 29.121094 L 36.964844 27.457031 L 36.964844 -0.0625 L 31.964844 -0.0625 z M 38.214844 -0.0625 L 38.214844 26.140625 L 41.019531 23.1875 L 43.035156 23.1875 L 43.035156 -0.0625 L 38.214844 -0.0625 z M 44.607422 -0.0625 L 44.607422 23.1875 L 48.357422 23.1875 L 48.357422 -0.0625 L 44.607422 -0.0625 z M 49.464844 -0.0625 L 49.464844 23.1875 L 54.464844 23.1875 L 54.464844 -0.0625 L 49.464844 -0.0625 z M 57.677734 -0.0625 L 57.677734 23.1875 L 59.464844 23.1875 L 59.464844 -0.0625 L 57.677734 -0.0625 z M 61.072266 -0.0625 L 61.072266 24.853516 L 65.125 29.121094 L 65.892578 29.121094 L 65.892578 -0.0625 L 61.072266 -0.0625 z M 69.285156 -0.0625 L 69.285156 26.595703 L 72.322266 23.558594 L 72.322266 -0.0625 L 69.285156 -0.0625 z M 75.177734 -0.0625 L 75.177734 20.703125 L 77.322266 18.558594 L 77.322266 -0.0625 L 75.177734 -0.0625 z M 79.822266 -0.0625 L 79.822266 16.722656 C 81.151497 16.31742 82.648212 16.624775 83.703125 17.679688 L 85.177734 19.154297 L 85.177734 -0.0625 L 79.822266 -0.0625 z M 86.964844 -0.0625 L 86.964844 100.58203 L 89.822266 100.58203 L 89.822266 -0.0625 L 86.964844 -0.0625 z M 91.607422 -0.0625 L 91.607422 100.58203 L 94.607422 100.58203 L 94.607422 -0.0625 L 91.607422 -0.0625 z M 97.464844 -0.0625 L 97.464844 100.58203 L 100.01953 100.59766 L 100.01953 -0.0625 L 97.464844 -0.0625 z M 85.177734 24.953125 L 79.822266 30.308594 L 79.822266 31.533203 C 80.584088 32.521037 81.041016 33.738406 81.041016 35.056641 L 81.041016 70.666016 C 81.041016 71.984251 80.584088 73.20162 79.822266 74.189453 L 79.822266 100.58203 L 85.177734 100.58203 L 85.177734 24.953125 z M 50.255859 38.023438 C 49.989003 38.023438 49.728378 38.04955 49.464844 38.0625 L 49.464844 46.416016 L 54.464844 41.416016 L 54.464844 38.601562 C 53.124871 38.234131 51.717537 38.023438 50.255859 38.023438 z M 48.357422 38.148438 C 47.048914 38.304051 45.793229 38.616325 44.607422 39.068359 L 44.607422 51.273438 L 48.357422 47.523438 L 48.357422 38.148438 z M 43.035156 39.763672 C 41.163208 40.725014 39.526336 42.048781 38.214844 43.636719 L 38.214844 57.666016 L 43.035156 52.845703 L 43.035156 39.763672 z M 36.964844 45.404297 C 35.636567 47.597595 34.861328 50.140154 34.861328 52.861328 C 34.861328 55.21815 35.444236 57.440077 36.462891 59.417969 L 36.964844 58.916016 L 36.964844 45.404297 z M 63.970703 46.160156 L 61.072266 49.058594 L 61.072266 63.410156 C 63.895853 60.719906 65.648435 56.987607 65.648438 52.861328 C 65.648438 50.446726 65.034407 48.175074 63.970703 46.160156 z M 59.464844 50.666016 L 57.677734 52.453125 L 57.677734 65.855469 C 58.304163 65.522069 58.895544 65.137935 59.464844 64.726562 L 59.464844 50.666016 z M 54.464844 55.666016 L 49.464844 60.666016 L 49.464844 67.660156 C 49.728363 67.673106 49.989019 67.699219 50.255859 67.699219 C 51.717537 67.699219 53.124871 67.488525 54.464844 67.121094 L 54.464844 55.666016 z M 48.357422 61.773438 L 44.607422 65.523438 L 44.607422 66.652344 C 45.79334 67.104434 47.04878 67.418608 48.357422 67.574219 L 48.357422 61.773438 z M 77.322266 76.109375 C 76.658835 76.387802 75.935744 76.550894 75.177734 76.585938 L 75.177734 100.58203 L 77.322266 100.58203 L 77.322266 76.109375 z M 33.529297 76.601562 L 31.964844 78.166016 L 31.964844 100.58203 L 36.964844 100.58203 L 36.964844 76.601562 L 33.529297 76.601562 z M 38.214844 76.601562 L 38.214844 100.58203 L 43.035156 100.58203 L 43.035156 76.601562 L 38.214844 76.601562 z M 44.607422 76.601562 L 44.607422 100.58203 L 48.357422 100.58203 L 48.357422 76.601562 L 44.607422 76.601562 z M 49.464844 76.601562 L 49.464844 100.58203 L 54.464844 100.58203 L 54.464844 76.601562 L 49.464844 76.601562 z M 57.677734 76.601562 L 57.677734 100.58203 L 59.464844 100.58203 L 59.464844 76.601562 L 57.677734 76.601562 z M 61.072266 76.601562 L 61.072266 100.58203 L 65.892578 100.58203 L 65.892578 76.601562 L 61.072266 76.601562 z M 69.285156 76.601562 L 69.285156 100.58203 L 72.322266 100.58203 L 72.322266 76.601562 L 69.285156 76.601562 z M 30.535156 79.595703 L 28.75 81.380859 L 28.75 100.58203 L 30.535156 100.58203 L 30.535156 79.595703 z M 28.744141 81.386719 L 25.53125 84.599609 L 25.53125 100.58203 L 28.744141 100.58203 L 28.744141 81.386719 z M 23.234375 86.896484 L 19.203125 90.927734 C 18.897879 91.23298 18.548491 91.459586 18.183594 91.642578 L 18.183594 100.58203 L 23.234375 100.58203 L 23.234375 86.896484 z M 14.039062 91.203125 L 14.039062 100.58203 L 17.253906 100.58203 L 17.253906 91.980469 C 16.146336 92.214454 14.97024 91.947474 14.039062 91.203125 z "
       style="fill:#FFFFFF;fill-opacity:1;stroke:none;stroke-width:1.08086944" />
  </g>
</svg>
