<?xml version="1.0" encoding="UTF-8" standalone="no"?>
<svg
   xmlns:dc="http://purl.org/dc/elements/1.1/"
   xmlns:cc="http://creativecommons.org/ns#"
   xmlns:rdf="http://www.w3.org/1999/02/22-rdf-syntax-ns#"
   xmlns:svg="http://www.w3.org/2000/svg"
   xmlns="http://www.w3.org/2000/svg"
   id="svg821"
   version="1.1"
   viewBox="0 0 270.93333 67.733335"
   height="256"
   width="1024">
  <defs
     id="defs815" />
  <metadata
     id="metadata818">
    <rdf:RDF>
      <cc:Work
         rdf:about="">
        <dc:format>image/svg+xml</dc:format>
        <dc:type
           rdf:resource="http://purl.org/dc/dcmitype/StillImage" />
        <dc:title></dc:title>
      </cc:Work>
    </rdf:RDF>
  </metadata>
  <g
     transform="translate(0,-229.26665)"
     id="layer1">
    <path
       id="rect1372"
       d="m 228.54396,241.38705 c -1.46579,0 -2.64584,1.18005 -2.64584,2.64584 v 38.80745 c 0,1.46579 1.18005,2.64583 2.64584,2.64583 h 17.69349 c 1.46579,0 2.64584,-1.18004 2.64584,-2.64583 v -38.80745 c 0,-1.46579 -1.18005,-2.64584 -2.64584,-2.64584 z m -0.71055,3.88762 h 19.13526 v 35.90737 h -19.13526 z"
       style="fill:#e6e6e6;fill-rule:evenodd;stroke-width:0.26458332" />
    <rect
       ry="2.6458333"
       rx="2.6458333"
       y="263.94928"
       x="121.014"
       height="19.510675"
       width="34.745037"
       id="rect1386"
       style="fill:#4d4d4d;fill-opacity:1;fill-rule:evenodd;stroke-width:0.26458332" />
    <rect
       ry="2.6458333"
       rx="2.6458333"
       y="254.65303"
       x="174.74121"
       height="19.510675"
       width="34.745037"
       id="rect1386-5"
       style="fill:#4d4d4d;fill-opacity:1;fill-rule:evenodd;stroke-width:0.26458332" />
    <rect
       ry="2.6458333"
       rx="2.6458333"
       y="268.95425"
       x="66.716202"
       height="19.510675"
       width="34.745037"
       id="rect1386-8"
       style="fill:#4d4d4d;fill-opacity:1;fill-rule:evenodd;stroke-width:0.26458332" />
    <rect
       transform="rotate(45)"
       y="20.835773"
       x="349.30402"
       height="4.3467259"
       width="9.6383924"
       id="rect1409"
       style="fill:#e6e6e6;fill-opacity:1;fill-rule:evenodd;stroke-width:0.29654875" />
    <rect
       transform="rotate(-45)"
       y="354.59567"
       x="-25.182499"
       height="4.3467259"
       width="14.248792"
       id="rect1409-2"
       style="fill:#e6e6e6;fill-opacity:1;fill-rule:evenodd;stroke-width:0.36056438" />
    <g
       transform="translate(7.4083337)"
       style="fill:#edc11c;fill-opacity:1"
       id="g1443">
      <path
         d="m 22.859997,276.38679 c -0.24245,-0.16985 -0.6662,-1.0812 -0.94166,-2.02519 -0.27601,-0.94591 -1.44819,-2.79896 -2.61127,-4.12808 -2.68495,-3.06825 -3.37732,-4.43042 -3.66407,-7.20869 -0.85625,-8.2963 6.7042,-14.54071 14.76725,-12.19671 1.75277,0.50954 2.91208,1.20071 4.23802,2.52665 2.47475,2.47474 3.2448,4.12838 3.48485,7.48346 0.26628,3.72154 -0.58147,5.93018 -3.55553,9.26328 -1.47807,1.65651 -2.4569,3.20533 -2.77328,4.38823 -0.52505,1.96311 -1.86448,2.77309 -3.01152,1.82114 -0.93009,-0.77191 -1.2143,-3.57832 -0.60367,-5.96088 0.42006,-1.63899 0.90074,-2.40204 2.03438,-3.22941 2.35758,-1.72068 3.79629,-3.13497 3.79629,-3.73184 0,-0.89934 -0.7725,-0.64246 -2.85904,0.95073 -1.85102,1.41335 -2.1179,1.49189 -4.49357,1.32225 -1.38911,-0.0991 -2.97035,-0.32951 -3.51385,-0.51183 -0.82513,-0.2768 -0.96324,-0.20193 -0.83698,0.45367 0.19075,0.99048 1.8426,1.84292 3.58686,1.85097 1.67531,0.007 2.20099,0.77212 1.13516,1.6506 -0.54361,0.44806 -0.98275,1.68685 -1.33561,3.76765 -0.28914,1.70506 -0.628,3.26562 -0.75302,3.4679 -0.27515,0.4452 -1.48206,0.47182 -2.08974,0.0461 z m 1.64429,7.78295 c -1.87695,-1.25439 -2.04418,-1.5037 -2.04418,-3.04755 v -1.68141 l 4.30861,-0.1198 4.30861,-0.11978 v 1.91554 c 0,1.82416 -0.0942,1.97527 -1.97388,3.16734 -1.08564,0.68849 -2.10463,1.2518 -2.26443,1.2518 -0.15981,0 -1.21043,-0.61476 -2.33473,-1.36614 z"
         style="fill:#edc11c;fill-opacity:1;stroke-width:0.42035216"
         id="path1451" />
      <path
         d="m 43.438347,278.43105 c 0.123619,-0.12362 -0.08805,-0.66407 -0.470371,-1.20099 -0.382322,-0.53692 -0.695132,-1.25923 -0.695132,-1.60513 0,-0.51779 -0.186988,-0.44976 -1.058334,0.38504 -0.962076,0.92173 -1.472959,1.8854 -0.768825,1.45022 0.15923,-0.0984 0.798067,0.13035 1.419638,0.50835 1.271523,0.77325 1.264376,0.77115 1.573024,0.46251 z m -31.351957,-0.4877 c 0.568907,-0.36349 1.16422,-0.58064 1.322917,-0.48256 0.703326,0.43468 0.191622,-0.52972 -0.769797,-1.45082 -0.871347,-0.8348 -1.058333,-0.90283 -1.058333,-0.38504 0,0.3459 -0.312808,1.06821 -0.695131,1.60513 -1.0561036,1.48316 -0.511309,1.8069 1.200344,0.71329 z m 34.067008,-9.10652 c 0,-0.2518 0.608205,-0.41158 1.56668,-0.41158 2.02017,0 2.358371,-0.57556 0.736415,-1.25326 -0.701503,-0.29311 -1.374068,-0.78989 -1.494588,-1.10396 -0.143559,-0.37411 -0.370825,0.0251 -0.659016,1.15768 -0.24194,0.95079 -0.374551,1.79485 -0.294691,1.8757 0.07986,0.0808 0.1452,-0.0382 0.1452,-0.26458 z M 7.7891794,268.42525 c -0.08172,-0.29104 -0.239046,-1.06866 -0.349613,-1.72804 -0.16346,-0.97482 -0.273223,-1.10033 -0.587347,-0.67157 -0.212474,0.29001 -0.907447,0.79658 -1.544383,1.1257 -1.480136,0.76483 -1.161754,1.27391 0.796706,1.27391 0.845506,0 1.603869,0.11906 1.685251,0.26459 0.08138,0.14552 0.08111,0.0265 -7.05e-4,-0.26459 z M 46.952611,258.09057 c 0.137061,-0.34831 0.813458,-0.86905 1.503105,-1.1572 1.527531,-0.63824 1.297012,-1.20812 -0.488693,-1.20812 -0.725855,0 -1.504669,-0.18493 -1.730698,-0.41096 -0.312765,-0.31276 -0.335749,-0.1231 -0.09619,0.79375 0.173124,0.66259 0.370684,1.52221 0.439023,1.91027 0.114495,0.65014 0.143825,0.65582 0.373454,0.0723 z M 7.5686374,256.78945 c 0.251992,-1.23014 0.252853,-1.67896 0.0028,-1.42885 -0.200635,0.20056 -0.958607,0.36465 -1.684461,0.36465 -1.65572,0 -2.073776,0.58843 -0.765242,1.07711 0.54525,0.20363 1.236193,0.68756 1.535426,1.07541 0.518199,0.67165 0.561527,0.61992 0.911455,-1.08832 z m 34.7042066,-8.53534 c 0,-0.30118 0.335598,-0.97424 0.745773,-1.49569 0.915671,-1.16409 0.639105,-1.54021 -0.656088,-0.89225 -0.534396,0.26735 -1.259658,0.57115 -1.611692,0.67511 -0.564293,0.16665 -0.512092,0.31163 0.440973,1.22472 0.767451,0.73527 1.081034,0.87686 1.081034,0.48811 z m -29.467338,-0.6319 c 0.75854,-0.79174 0.877323,-1.06918 0.457761,-1.06918 -0.311619,0 -1.045446,-0.27483 -1.630726,-0.61074 -1.231377,-0.70671 -1.8382466,-0.38921 -1.008517,0.52764 0.311975,0.34472 0.699957,0.98558 0.862185,1.42412 l 0.294958,0.79734 z m 20.651102,-5.12226 c -0.276568,-0.33324 -0.351006,-0.97814 -0.203599,-1.76389 0.313552,-1.67137 -0.519718,-1.67382 -1.316063,-0.004 -0.406109,0.85162 -0.83685,1.24403 -1.388256,1.26472 -0.585157,0.022 2.188402,0.89688 3.212488,1.01339 0.07226,0.008 -0.06479,-0.22144 -0.30457,-0.51036 z m -11.115709,-0.0119 c 0.970139,-0.24936 1.404133,-0.46863 0.964432,-0.48726 -0.549445,-0.0233 -0.983591,-0.41999 -1.388256,-1.26858 -0.796346,-1.66996 -1.629615,-1.66751 -1.316064,0.004 0.147408,0.78575 0.07297,1.43065 -0.203599,1.76389 -0.499079,0.60135 -0.440975,0.601 1.943487,-0.0119 z"
         style="fill:#edc11c;fill-opacity:1;stroke-width:0.35277778"
         id="path1537" />
    </g>
    <path
       id="path1633"
       d="m 101.26326,279.19185 c 5.65955,0 9.05527,-3.35488 9.76271,-4.06117 0.70745,-0.70629 4.3154,-4.82632 10.25791,-4.82632"
       style="fill:none;stroke:#000000;stroke-width:0.79374999;stroke-linecap:butt;stroke-linejoin:miter;stroke-miterlimit:4;stroke-dasharray:none;stroke-opacity:1" />
    <path
       id="path1633-5"
       d="m 155.52549,274.10006 c 5.47955,0 8.76729,-5.0773 9.45223,-6.1462 0.68494,-1.0689 4.17816,-7.30418 9.93168,-7.30418"
       style="fill:none;stroke:#000000;stroke-width:0.79374999;stroke-linecap:butt;stroke-linejoin:miter;stroke-miterlimit:4;stroke-dasharray:none;stroke-opacity:1" />
  </g>
  <g
     id="layer2">
    <path
       id="path1685"
       d="m 26.717489,27.664344 c 1.050498,-1.250594 3.262531,-3.201519 7.784182,-3.201519 4.52165,0 6.722695,2.000948 7.322979,2.901375 0.600284,0.900428 -0.850403,2.851351 -2.501186,2.801329 -1.650783,-0.05002 -2.54022,-1.550736 -4.821793,-1.600761 -2.281574,-0.05002 -4.082427,1.450689 -5.933305,1.400665 -1.850877,-0.05002 -2.451161,-1.600759 -1.850877,-2.301089 z"
       style="fill:#ffffff;fill-opacity:0.63895485;stroke:#000000;stroke-width:0;stroke-linecap:butt;stroke-linejoin:miter;stroke-miterlimit:4;stroke-dasharray:none;stroke-opacity:1" />
  </g>
</svg>
