<?xml version="1.0" encoding="UTF-8" standalone="no"?>
<svg
   xmlns:dc="http://purl.org/dc/elements/1.1/"
   xmlns:cc="http://creativecommons.org/ns#"
   xmlns:rdf="http://www.w3.org/1999/02/22-rdf-syntax-ns#"
   xmlns:svg="http://www.w3.org/2000/svg"
   xmlns="http://www.w3.org/2000/svg"
   id="svg16"
   xml:space="preserve"
   enable-background="new 0 0 24.00 24.00"
   viewBox="0 0 30 30"
   height="30"
   width="30"
   version="1.1"><metadata
     id="metadata22"><rdf:RDF><cc:Work
         rdf:about=""><dc:format>image/svg+xml</dc:format><dc:type
           rdf:resource="http://purl.org/dc/dcmitype/StillImage" /><dc:title></dc:title></cc:Work></rdf:RDF></metadata><defs
     id="defs20" /><g
     id="g1192"
     style="display:inline"><path
       id="circle1190"
       d="M 15,0 A 15,15 0 0 0 0,15 15,15 0 0 0 15,30 15,15 0 0 0 30,15 15,15 0 0 0 15,0 Z M 11.724609,2.0976562 12.998047,5.890625 11.101562,6.5273438 9.828125,2.734375 Z M 19.15625,2.6855469 17.576172,13.464844 a 3,3 58.457765 0 1 0.265625,2.498047 3,3 58.457765 0 1 -3.800781,1.882812 3,3 58.457765 0 1 -1.884766,-3.800781 3,3 58.457765 0 1 1.724609,-1.820313 z m -12.2421875,2.0371093 1.9550781,2.0625 -1.0292968,0.9472657 -1.9550782,-2.0625 z M 4.2324219,8.2753906 5.7871094,9.0722656 5.3984375,9.8300781 3.84375,9.0332031 Z m -1.2832031,3.2949214 1.0878906,0.279297 -0.125,0.580079 -1.0878906,-0.28125 z m 11.9589842,1.435547 a 2,2 58.457765 0 0 -1.804687,1.357422 2,2 58.457765 0 0 1.255859,2.535157 2,2 58.457765 0 0 2.535156,-1.25586 2,2 58.457765 0 0 -1.255859,-2.533203 2,2 58.457765 0 0 -0.730469,-0.103516 z"
       style="opacity:1;fill:#86c5f2;fill-opacity:1;stroke:none;stroke-width:0;stroke-miterlimit:4;stroke-dasharray:none;stroke-dashoffset:0;stroke-opacity:1" /></g></svg>