<?xml version="1.0" encoding="UTF-8" standalone="no"?>
<svg
   xmlns:dc="http://purl.org/dc/elements/1.1/"
   xmlns:cc="http://creativecommons.org/ns#"
   xmlns:rdf="http://www.w3.org/1999/02/22-rdf-syntax-ns#"
   xmlns:svg="http://www.w3.org/2000/svg"
   xmlns="http://www.w3.org/2000/svg"
   id="svg8"
   version="1.1"
   viewBox="0 0 100 100"
   height="100"
   width="100">
  <defs
     id="defs2" />
  <metadata
     id="metadata5">
    <rdf:RDF>
      <cc:Work
         rdf:about="">
        <dc:format>image/svg+xml</dc:format>
        <dc:type
           rdf:resource="http://purl.org/dc/dcmitype/StillImage" />
        <dc:title></dc:title>
      </cc:Work>
    </rdf:RDF>
  </metadata>
  <g
     transform="translate(0,-270.54165)"
     id="layer1">
    <path
       id="path4517"
       d="m 29.392876,326.99211 c 0.224981,-0.29421 -2.117462,-0.46846 -3.337929,-4.24331 l 0,0 c -0.428296,-1.34461 -0.539656,-2.82325 -0.456801,-4.66324 v 0 c 0.0484,-1.17203 0.227315,-2.78276 0.07889,-4.08506 l 0,0 c -0.120793,-1.01502 -0.559349,-2.12834 -1.446746,-2.71413 l 0,0 c -2.19909,-1.53026 -4.22068,-3.95006 -5.208691,-7.06603 l 0,0 -3e-6,-1e-5 0,0 c -0.912682,-2.89079 -0.613542,-6.51118 1.497155,-9.39361 l 0,0 c 0.369358,-0.5172 0.629103,-1.12903 0.597183,-1.71085 l 0,0 c -0.0038,-0.5534 -0.251425,-1.12913 -0.597404,-1.67487 l 0,0 -5e-6,-10e-6 0,0 c -0.868836,-1.35629 -2.283793,-2.35008 -3.85105,-3.3355 l 0,0 c -1.480021,-0.91337 -3.07327,-1.70105 -4.770207,-2.43041 l 0,0 c -0.550107,-0.2361 -1.108422,-0.46383 -1.674263,-0.68 l 0,0 c -0.159108,-0.0608 -0.3181757,-0.12044 -0.4771584,-0.17827 0,0 -2.8e-6,-5e-5 -2.8e-6,-5e-5 -0.017403,-0.26701 -0.034344,-0.53416 -0.05085,-0.80138 -3e-7,-10e-6 -6e-7,-10e-6 -8e-7,-2e-5 -0.011362,-0.005 -0.02273,-0.009 -0.034109,-0.0137 -0.00415,-0.002 -0.00836,-0.003 -0.01252,-0.005 7.2074396,-1.32961 16.0209476,-2.31385 24.4079746,-0.13009 5.335042,1.60464 10.487688,4.90033 14.11597,9.78045 3.383483,4.58604 5.417533,10.0485 6.804244,15.82443 1.480775,6.12282 2.241189,12.29222 3.00224,18.82157 0.67723,5.88529 -0.797852,12.05117 -4.094315,17.25508 -2.946684,4.65435 -7.170385,8.59086 -12.190546,11.27269 -2.198169,1.17783 -4.577426,2.11512 -7.086714,2.65133 0,0 -1.8e-5,0 -1.8e-5,0 -2.16128,0.46752 -4.467576,0.61788 -6.751931,0.19904 0,0 -1.9e-5,0 -1.9e-5,0 -2.033575,-0.37274 -4.017733,-1.28512 -5.586596,-2.77003 0,0 -1.4e-5,-2e-5 -1.4e-5,-2e-5 -1.691626,-1.64825 -2.732944,-3.80615 -3.204851,-6.02936 -0.679998,-3.07631 -0.408509,-6.41722 1.022382,-9.34247 1.522652,-3.02321 4.02035,-5.38085 6.786175,-7.13755 4.102273,-2.6154 8.655314,-4.2957 13.41234,-5.39165 4.256946,-0.98073 8.622908,-1.48089 12.848506,-1.78098 9.877003,-0.76201 20.041883,0.81644 28.093153,6.21536 l 0,0 c 2.870774,1.89343 5.485204,4.52374 6.622923,7.96355 l 0,0 c 0.484753,1.53129 0.587614,3.17087 0.283593,4.74802 l 0,0 c -0.357589,1.78091 -1.17285,3.39143 -2.209438,4.759 0,0 -1.1e-5,1e-5 -1.1e-5,1e-5 -1.406066,1.89088 -3.12013,3.61649 -5.216748,4.84481 -1.698606,0.99029 -3.648606,1.56296 -5.640457,1.55722 0,0 -1.9e-5,0 -1.9e-5,0 h 0 c -1.956336,-0.0229 -3.835214,-0.5864 -5.477426,-1.48215 -1.880054,-1.02433 -3.485416,-2.41764 -4.838005,-3.94886 l 0,0 c -3.4428,-3.89674 -5.568272,-8.66887 -6.864267,-13.3818 -1.676745,-6.0494 -2.040334,-12.25561 -1.408902,-18.12596 l 0,0 c 0.643487,-6.02294 1.622918,-11.7376 3.351763,-17.18529 l 0,0 7e-6,-10e-6 0,0 c 1.468697,-4.65185 3.489994,-8.97348 6.47298,-12.53799 l 0,0 c 2.817207,-3.35398 6.495741,-5.72958 10.407654,-6.86313 l 0,0 c 5.099944,-1.17352 10.361343,-0.52814 14.871185,0.59321 l 0,0 c -0.003,0.0267 -0.004,0.0344 -0.0069,0.0609 -0.0034,0.0298 -0.01462,0.13007 -0.01797,0.15985 -0.02247,0.19984 -0.0451,0.4002 -0.06807,0.6008 l 0,0 c 0,0 -9e-6,0 -9e-6,0 -0.191997,0.12313 -0.381882,0.25219 -0.570152,0.38516 l 0,0 c -0.636795,0.45003 -1.238149,0.9341 -1.799882,1.44822 l 0,0 c -1.559423,1.45304 -2.829895,3.06123 -3.259596,4.88399 l 0,0 c -0.175256,0.55452 0.05538,1.26508 0.296238,1.98509 l 0,0 c 0.325748,0.88179 0.760852,1.75738 1.102509,2.69627 l 0,0 c 0.3729,0.99961 0.60935,2.07777 0.503651,3.18321 l 0,0 c -0.16169,1.36399 -0.875586,2.52902 -1.74745,3.38018 l 0,0 -3e-6,0 0,0 c -2.393395,2.3634 -3.631882,5.33992 -3.911712,8.05767 v 0 c -0.262577,2.55335 0.01376,5.05347 -0.630951,7.1214 l 0,0 c -0.821437,2.53356 -2.886607,4.3407 -4.013075,5.25447 l 0,0 c -0.845593,0.69003 -1.594294,1.18765 -2.096697,1.494 l 0,0 c -0.289301,0.17642 -0.516335,0.30109 -0.676961,0.38028 l 0,0 c 0,0 -1e-6,0 -1e-6,0 -0.08439,0.0416 -0.149833,0.0704 -0.196575,0.0871 0,0 -10e-7,0 -10e-7,0 -0.02898,-2.5e-4 -0.04926,0.003 -0.06258,0.006 -0.01298,0.003 -0.01959,0.006 -0.0207,0.007 0,0 0,0 0,0 0,0 0,0 0,0 -1.35e-4,7e-5 -1.16e-4,6e-5 -1.16e-4,6e-5 0,0 -2e-5,1e-5 1.1e-4,-7e-5 0,0 0,0 0,0 0,0 0,0 0,0 0.0011,-7.2e-4 0.0071,-0.005 0.01593,-0.0149 0.009,-0.0103 0.02098,-0.0269 0.03423,-0.0529 0,0 0,0 0,0 0.0358,-0.0335 0.09084,-0.0792 0.163356,-0.13674 0,0 0,0 0,0 l 0,0 c 0.139037,-0.11032 0.343956,-0.26544 0.609015,-0.47052 l 0,0 c 0.453042,-0.35055 1.166119,-0.91 1.946088,-1.62776 l 0,0 c 1.041675,-0.96411 2.976089,-2.82726 3.606861,-5.13292 l 0,0 c 0.545536,-1.89957 0.175599,-4.26327 0.393974,-6.99846 l 0,0 c 0.233562,-2.9275 1.482513,-6.1609 4.024886,-8.78046 l 2e-6,0 4e-6,-1e-5 0,0 c 0.706187,-0.74196 1.283533,-1.68965 1.354177,-2.69161 l 0,0 c 0.08472,-0.83376 -0.147366,-1.7165 -0.483427,-2.62264 l 0,0 c -0.322014,-0.84511 -0.768774,-1.70523 -1.145514,-2.66988 l 0,0 c -0.325014,-0.76734 -0.589427,-1.72683 -0.384972,-2.76764 l 0,0 c 0.527047,-2.19561 1.908041,-4.07537 3.590669,-5.63403 l 0,0 c 0.599589,-0.56468 1.24162,-1.09677 1.922069,-1.59173 l 0,0 c 0.201124,-0.14638 0.407413,-0.29067 0.619504,-0.43093 0,0 9e-6,-10e-6 9e-6,-10e-6 l 0,0 c 0.08758,0.12854 0.176113,0.25756 0.265755,0.38735 4.99e-4,7.2e-4 0.07153,0.10339 0.07203,0.10411 0.0086,0.0126 0.01891,0.0274 0.02755,0.04 l 1.21e-4,-7e-5 c -4.318678,-0.64446 -9.26164,-0.75965 -13.852819,0.91781 l 0,0 c -3.569258,1.06749 -6.932718,3.30096 -9.494825,6.40731 l 0,0 c -2.758765,3.33109 -4.617542,7.45048 -6.02096,11.95981 l 0,0 c 0,0 -2e-6,0 -4e-6,10e-6 -1.637026,5.28842 -2.545141,10.87351 -3.146619,16.82141 l 0,0 c -0.565578,5.63933 -0.183806,11.58131 1.44669,17.32988 l 0,0 c 1.282386,4.48499 3.278141,8.96007 6.44924,12.47893 l 0,0 c 1.238251,1.37367 2.647004,2.59992 4.242134,3.44734 l 0,0 c 1.377394,0.73063 2.90518,1.19601 4.41916,1.19209 0,0 1.4e-5,0 1.4e-5,0 1.531482,0.0135 3.090859,-0.46347 4.473308,-1.26491 1.745376,-1.00593 3.222617,-2.53198 4.514812,-4.24806 0,0 9e-6,-2e-5 9e-6,-2e-5 l 0,0 c 0.857465,-1.16436 1.527658,-2.46116 1.775963,-3.813 0.228689,-1.17723 0.143395,-2.43246 -0.227414,-3.5958 l 0,0 c -0.819025,-2.72308 -3.129219,-4.92736 -5.711828,-6.71085 l 0,0 c -7.422931,-5.03448 -17.076443,-6.45451 -26.59188,-5.78004 -4.157118,0.32665 -8.405221,0.81374 -12.489018,1.73921 -4.564646,1.03445 -8.86273,2.60249 -12.65116,5.05768 -2.500171,1.62725 -4.715423,3.66247 -5.940029,6.17969 -1.184862,2.34997 -1.398627,5.16765 -0.83984,7.77105 0.417659,1.85536 1.227934,3.61152 2.519232,4.82593 0,0 1.1e-5,10e-6 1.1e-5,10e-6 1.15583,1.12993 2.738362,1.84166 4.381586,2.16194 0,0 1.5e-5,0 1.5e-5,0 1.884707,0.36694 3.885127,0.22588 5.829978,-0.17424 0,0 1.6e-5,-1e-5 1.6e-5,-1e-5 2.256312,-0.47078 4.433733,-1.32699 6.478337,-2.40918 4.670102,-2.47993 8.622412,-6.13312 11.367189,-10.43792 3.039626,-4.76997 4.438154,-10.44013 3.830242,-15.78808 -0.732768,-6.52793 -1.442241,-12.60841 -2.853881,-18.58524 -1.33962,-5.62892 -3.213535,-10.85134 -6.360777,-15.14123 -3.296969,-4.53199 -8.090222,-7.6515 -13.062472,-9.1991 -7.855349,-2.78343 -16.392336,-2.41621 -23.488462,-1.57867 0.0043,0.001 0.0086,0.003 0.01278,0.004 0.01157,0.004 0.02313,0.007 0.03468,0.0112 2e-6,0 3e-6,0 4e-6,-1e-5 0.07092,-0.23547 0.141219,-0.47051 0.210918,-0.70518 0,0 1.2e-5,-4e-5 1.2e-5,-4e-5 0.167792,0.0635 0.333854,0.12815 0.498188,0.19336 l 0,0 c 0.584517,0.23194 1.159124,0.47499 1.723328,0.72598 l 0,0 c 1.736981,0.77171 3.385732,1.61714 4.930983,2.59937 l 0,0 c 1.624763,1.01468 3.17687,2.18784 4.236098,3.82648 l 0,0 6e-6,1e-5 0,0 c 0.45131,0.69273 0.758684,1.51396 0.782617,2.39634 l 0,0 c -0.0021,0.96231 -0.365391,1.83919 -0.896222,2.52223 l 0,0 c -1.886851,2.44756 -2.219839,5.69266 -1.456077,8.27486 l 0,0 4e-6,1e-5 -2e-6,0 c 0.844273,2.86595 2.664315,5.15817 4.669355,6.63084 l 0,0 c 1.142475,0.86416 1.652283,2.20388 1.74198,3.40237 l 0,0 c 0.113103,1.44949 -0.117814,3.07143 -0.20752,4.20817 -0.135149,1.80274 -0.09879,3.18632 0.249684,4.47014 l 0,0 c 0.876329,3.2916 2.884808,4.32126 2.829487,4.3936 z"
       style="fill:#000000;stroke:none;stroke-width:1px;stroke-linecap:butt;stroke-linejoin:miter;stroke-opacity:1" />
  </g>
</svg>
