<?xml version="1.0" encoding="UTF-8" standalone="no"?>
<svg
   xmlns:dc="http://purl.org/dc/elements/1.1/"
   xmlns:cc="http://creativecommons.org/ns#"
   xmlns:rdf="http://www.w3.org/1999/02/22-rdf-syntax-ns#"
   xmlns:svg="http://www.w3.org/2000/svg"
   xmlns="http://www.w3.org/2000/svg"
   xmlns:xlink="http://www.w3.org/1999/xlink"
   id="svg8"
   version="1.1"
   viewBox="0 0 126.458 126.458"
   height="100"
   width="100">
  <defs
     id="defs2">
    <clipPath
       id="clipPath947"
       clipPathUnits="userSpaceOnUse">
      <use
         height="100%"
         width="100%"
         id="use949"
         xlink:href="#g943"
         y="0"
         x="0" />
    </clipPath>
  </defs>
  <metadata
     id="metadata5">
    <rdf:RDF>
      <cc:Work
         rdf:about="">
        <dc:format>image/svg+xml</dc:format>
        <dc:type
           rdf:resource="http://purl.org/dc/dcmitype/StillImage" />
        <dc:title></dc:title>
      </cc:Work>
    </rdf:RDF>
  </metadata>
  <g
     style="display:inline"
     id="layer2">
    <path
       id="rect865"
       transform="scale(1.26458)"
       d="M 37.25,8.3339844 37,8.6074219 V 33.552734 c 0.408038,-0.316848 0.818618,-0.62963 1.25,-0.916015 V 8.3339844 Z m 3.5,0 V 31.234375 C 41.480362,30.883134 42.225496,30.558478 43,30.292969 V 8.3339844 Z m 3.875,0 V 29.804688 c 1.171685,-0.296758 2.383903,-0.489603 3.625,-0.578126 V 8.3339844 Z m 5.625,0 V 29.179688 c 0.546752,0.01293 1.089415,0.0394 1.625,0.09375 V 8.3339844 Z m 4.25,0 V 29.716797 c 0.987537,0.230662 1.946904,0.532733 2.875,0.898437 V 8.3339844 Z m 4,0 V 31.113281 c 0.421943,0.195996 0.843921,0.390433 1.25,0.613281 V 8.3339844 Z m 3.375,0 V 33.085938 c 1.771537,1.272783 3.329607,2.814331 4.625,4.568359 V 12.978516 L 62.25,8.3339844 Z M 35.5,10.246094 34.25,11.611328 v 24.507813 c 0.399169,-0.445369 0.814339,-0.873624 1.25,-1.283203 z m 32.875,4.78125 v 25.68164 c 1.400854,2.800368 2.208984,5.948658 2.208984,9.291016 0,3.342358 -0.80813,6.490648 -2.208984,9.291016 v 24.042968 h 2.5 V 16.666016 h -1 z m -37.5,0.273437 -1.25,1.365235 h -1.5 v 66.667968 h 2.75 v -24.5625 C 29.631276,56.102223 28.916016,53.137266 28.916016,50 c 0,-3.137266 0.71526,-6.102223 1.958984,-8.771484 z m -14.458984,1.365235 c -0.615114,0 -1.212972,0.07314 -1.791016,0.201172 v 66.265624 c 0.578044,0.128036 1.175902,0.201172 1.791016,0.201172 H 18.125 V 16.666016 Z m 5.458984,0 v 66.667968 h 2.75 V 16.666016 Z m 51.25,0 V 83.333984 H 74.5 V 16.666016 Z m 2.625,0 v 66.667968 h 4 V 16.666016 Z m 5.5,0 v 66.667968 h 1.833984 c 0.570169,0 1.127255,-0.05752 1.666016,-0.167968 V 16.833984 c -0.538761,-0.110451 -1.095847,-0.167968 -1.666016,-0.167968 z m 4.5,0.449218 v 65.769532 c 0.913837,-0.311473 1.758076,-0.775441 2.5,-1.365235 V 18.480469 c -0.741924,-0.589794 -1.586163,-1.053762 -2.5,-1.365235 z m -72.375,0.138672 c -0.57399,0.22722 -1.120851,0.510459 -1.625,0.853516 v 63.785156 c 0.504149,0.343057 1.05101,0.626296 1.625,0.853516 z M 10.5,19.150391 C 9.0090497,20.658048 8.0839844,22.725164 8.0839844,25 v 50 c 0,2.274836 0.9250653,4.341952 2.4160156,5.849609 z m 79.375,1.046875 V 79.802734 C 90.84178,78.442162 91.416016,76.78653 91.416016,75 V 25 c 0,-1.78653 -0.574236,-3.442162 -1.541016,-4.802734 z M 66.5,62.345703 c -1.295291,1.753735 -2.853701,3.295748 -4.625,4.568359 V 83.333984 H 66.5 Z M 34.25,63.880859 V 83.333984 H 35.5 V 65.164062 C 35.064339,64.754483 34.649169,64.326228 34.25,63.880859 Z M 37,66.447266 v 16.886718 h 1.25 V 67.363281 C 37.818618,67.076896 37.408038,66.764114 37,66.447266 Z m 22.75,1.826172 c -0.406079,0.222848 -0.828057,0.417285 -1.25,0.613281 v 14.447265 h 1.25 z m -19,0.492187 V 83.333984 H 43 V 69.707031 c -0.774504,-0.265509 -1.519638,-0.590165 -2.25,-0.941406 z m 16.625,0.619141 c -0.928096,0.365704 -1.887463,0.667775 -2.875,0.898437 v 13.050781 h 2.875 z m -12.75,0.810546 V 83.333984 H 48.25 V 70.773438 c -1.241097,-0.08852 -2.453315,-0.281368 -3.625,-0.578126 z m 7.25,0.53125 c -0.535585,0.05435 -1.078248,0.08082 -1.625,0.09375 v 12.513672 h 1.625 z"
       style="fill:#999999;fill-opacity:1;stroke:none;stroke-width:1" />
    <g
       clip-path="url(#clipPath947)"
       id="g945">
      <g
         id="g943" />
    </g>
    <circle
       style="display:inline;fill:#999999"
       cx="12"
       cy="12"
       r="3.2"
       id="circle834"
       transform="matrix(5.2690832,0,0,5.2690832,-0.31614986,-1e-5)" />
  </g>
  <g
     style="display:none"
     transform="translate(0,-270.54165)"
     id="layer1">
    <g
       transform="matrix(5.2690833,0,0,5.2690833,-0.31614986,270.54164)"
       id="g851"
       style="fill:#000000">
      <path
         style="fill:#b3b3b3"
         d="M 9,2 7.17,4 H 4 C 2.9,4 2,4.9 2,6 v 12 c 0,1.1 0.9,2 2,2 h 16 c 1.1,0 2,-0.9 2,-2 V 6 C 22,4.9 21.1,4 20,4 H 16.83 L 15,2 Z m 3,15 C 9.24,17 7,14.76 7,12 7,9.24 9.24,7 12,7 c 2.76,0 5,2.24 5,5 0,2.76 -2.24,5 -5,5 z"
         id="path836" />
      <path
         style="fill:none"
         d="M 0,0 H 24 V 24 H 0 Z"
         id="path838" />
      <circle
         id="circle905"
         r="3.2"
         cy="12.084853"
         cx="-9.5950413"
         style="fill:#cccccc" />
      <path
         id="path907"
         d="M 9,2 7.17,4 H 4 C 2.9,4 2,4.9 2,6 v 12 c 0,1.1 0.9,2 2,2 h 16 c 1.1,0 2,-0.9 2,-2 V 6 C 22,4.9 21.1,4 20,4 H 16.83 L 15,2 Z m 3,15 C 9.24,17 7,14.76 7,12 7,9.24 9.24,7 12,7 c 2.76,0 5,2.24 5,5 0,2.76 -2.24,5 -5,5 z"
         style="fill:#b3b3b3" />
      <path
         style="fill:#b3b3b3"
         d="m 39.037896,2.3818377 -1.83,2 h -3.17 c -1.1,0 -2,0.9 -2,2 V 18.381838 c 0,1.1 0.9,2 2,2 h 16 c 1.1,0 2,-0.9 2,-2 V 6.3818377 c 0,-1.1 -0.9,-2 -2,-2 h -3.17 l -1.83,-2 z m 3,15.0000003 c -2.76,0 -5,-2.24 -5,-5 0,-2.7600003 2.24,-5.0000003 5,-5.0000003 2.76,0 5,2.24 5,5.0000003 0,2.76 -2.24,5 -5,5 z"
         id="path910" />
    </g>
  </g>
</svg>
