<?xml version="1.0" encoding="UTF-8" standalone="no"?>
<svg
   xmlns:dc="http://purl.org/dc/elements/1.1/"
   xmlns:cc="http://creativecommons.org/ns#"
   xmlns:rdf="http://www.w3.org/1999/02/22-rdf-syntax-ns#"
   xmlns:svg="http://www.w3.org/2000/svg"
   xmlns="http://www.w3.org/2000/svg"
   id="svg16"
   xml:space="preserve"
   enable-background="new 0 0 24.00 24.00"
   viewBox="0 0 24.00 24.00"
   height="24"
   width="24"
   version="1.1"><metadata
     id="metadata22"><rdf:RDF><cc:Work
         rdf:about=""><dc:format>image/svg+xml</dc:format><dc:type
           rdf:resource="http://purl.org/dc/dcmitype/StillImage" /><dc:title></dc:title></cc:Work></rdf:RDF></metadata><defs
     id="defs20" /><g
     style="display:inline;opacity:0.66199999"
     id="layer1" /><g
     id="layer2"><path
       id="path10-4"
       d="M 4 2 C 2.89543 2 2 2.89543 2 4 L 2 7 L 4 7 L 4 4 L 7 4 L 7 2 L 4 2 z M 17 2 L 17 4 L 20 4 L 20 7 L 22 7 L 22 4 C 22 2.89543 21.1046 2 20 2 L 17 2 z M 2 17 L 2 20 C 2 21.1046 2.89543 22 4 22 L 7 22 L 7 20 L 4 20 L 4 17 L 2 17 z M 20 17 L 20 20 L 17 20 L 17 22 L 20 22 C 21.1046 22 22 21.1046 22 20 L 22 17 L 20 17 z "
       style="fill:#86c5f2;fill-opacity:1;stroke-linejoin:round" /><circle
       r="2"
       cy="8"
       cx="12"
       id="path838"
       style="fill:#86c5f2;fill-rule:evenodd;fill-opacity:1" /><circle
       r="2"
       cy="16"
       cx="12"
       id="path857"
       style="fill:#86c5f2;fill-rule:evenodd;fill-opacity:1" /><circle
       r="2"
       cy="12"
       cx="8"
       id="path859"
       style="fill:#86c5f2;fill-rule:evenodd;fill-opacity:1" /><circle
       r="2"
       cy="12"
       cx="16"
       id="path861"
       style="fill:#86c5f2;fill-rule:evenodd;fill-opacity:1" /></g></svg>