<?xml version="1.0" encoding="UTF-8" standalone="no"?>
<svg
   xmlns:dc="http://purl.org/dc/elements/1.1/"
   xmlns:cc="http://creativecommons.org/ns#"
   xmlns:rdf="http://www.w3.org/1999/02/22-rdf-syntax-ns#"
   xmlns:svg="http://www.w3.org/2000/svg"
   xmlns="http://www.w3.org/2000/svg"
   id="svg16"
   xml:space="preserve"
   enable-background="new 0 0 24.00 24.00"
   viewBox="0 0 30 30"
   height="30"
   width="30"
   version="1.1"><metadata
     id="metadata22"><rdf:RDF><cc:Work
         rdf:about=""><dc:format>image/svg+xml</dc:format><dc:type
           rdf:resource="http://purl.org/dc/dcmitype/StillImage" /><dc:title></dc:title></cc:Work></rdf:RDF></metadata><defs
     id="defs20" /><g
     transform="translate(0,6)"
     style="display:inline"
     id="layer1" /><g
     transform="translate(0,6)"
     style="display:none;opacity:0.36800005"
     id="layer2"><rect
       y="5"
       x="13"
       height="3"
       width="8"
       id="rect4522"
       style="fill:#0000ff;fill-rule:evenodd;stroke-width:0.77459663" /><rect
       y="16"
       x="13"
       height="3"
       width="8"
       id="rect4522-9"
       style="fill:#0000ff;fill-rule:evenodd;stroke-width:0.77459669" /><rect
       y="11"
       x="13"
       height="2"
       width="6.9999995"
       id="rect4522-9-6"
       style="fill:#0000ff;fill-rule:evenodd;stroke-width:0.59160793" /><rect
       y="6"
       x="8"
       height="12"
       width="3"
       id="rect4575"
       style="fill:#0000ff;fill-rule:evenodd;stroke-width:0.96076894" /><path
       id="rect4575-3"
       d="M 4.5,5 C 3.669,5 3,5.669 3,6.5 v 11 C 3,18.331 3.669,19 4.5,19 5.331,19 6,18.331 6,17.5 V 6.5 C 6,5.669 5.331,5 4.5,5 Z"
       style="fill:#0000ff;fill-rule:evenodd;stroke-width:1.03774905" /></g><g
     transform="translate(0,6)"
     style="display:inline"
     id="layer3"><path
       id="text4819"
       d="m 18.344332,17.659831 v 2.095156 h 0.39591 V 17.659831 Z M 7.3774973,17.768273 v 1.986714 H 7.7867076 V 19.21176 l -0.040922,-0.936068 0.5350427,1.479295 h 0.2813314 l 0.5360652,-1.480318 -0.040922,0.937091 v 0.543227 H 9.4675345 V 17.768273 H 8.9304469 l -0.5074203,1.440418 -0.51049,-1.440418 z m 6.4061887,0 v 1.986714 h 1.330955 v -0.329415 h -0.921744 v -0.531973 h 0.785683 v -0.320208 h -0.785683 v -0.47366 h 0.918676 v -0.331458 z m -2.392856,0.147314 v 0.363174 h -0.215857 v 0.289516 h 0.215857 v 0.79489 c 0.0055,0.279173 0.146066,0.418418 0.42251,0.418418 0.08185,0 0.162093,-0.01114 0.239388,-0.03479 v -0.298723 c -0.03365,0.0063 -0.07298,0.0092 -0.116626,0.0092 -0.0591,0 -0.09878,-0.01217 -0.119693,-0.03581 -0.02092,-0.02365 -0.03172,-0.06206 -0.03172,-0.116626 v -0.736577 h 0.252687 v -0.289481 h -0.252685 v -0.363174 z m -0.953459,0.335553 c -0.134584,0 -0.254619,0.03251 -0.360105,0.09616 -0.1045765,0.06275 -0.1851685,0.152773 -0.242459,0.27008 -0.057281,0.116397 -0.08593,0.248708 -0.08593,0.396933 v 0.03785 c 0,0.220973 0.06707,0.398185 0.2025615,0.53095 0.1364035,0.132766 0.3135005,0.198467 0.5299265,0.198467 0.122763,0 0.234614,-0.02319 0.335552,-0.06957 0.100939,-0.04729 0.18028,-0.112759 0.239388,-0.19642 l -0.193352,-0.21688 c -0.08548,0.110032 -0.20415,0.165731 -0.356012,0.165731 -0.09821,0 -0.179939,-0.02979 -0.244503,-0.08798 -0.06365,-0.0582 -0.101848,-0.134812 -0.114579,-0.231204 h 0.94016 v -0.161636 c 0,-0.233704 -0.05854,-0.41387 -0.174938,-0.54118 -0.115487,-0.127305 -0.273828,-0.191301 -0.475706,-0.191301 z m 2.421501,0 c -0.120036,0 -0.22893,0.02159 -0.325322,0.06343 -0.09639,0.04092 -0.170278,0.09707 -0.22302,0.169822 -0.05275,0.07275 -0.07979,0.151862 -0.07979,0.237341 h 0.394888 c 0,-0.05547 0.01796,-0.09912 0.05524,-0.130947 0.0382,-0.03183 0.09116,-0.04706 0.157546,-0.04706 0.07547,0 0.130152,0.02045 0.164708,0.06138 0.03547,0.04092 0.0532,0.09548 0.0532,0.163684 v 0.08389 h -0.181078 c -0.219155,9.4e-4 -0.386931,0.0432 -0.503329,0.126855 -0.115488,0.08366 -0.173914,0.203696 -0.173914,0.360105 0,0.12731 0.04763,0.233476 0.1422,0.317137 0.09548,0.08366 0.215517,0.12481 0.360105,0.12481 0.152772,0 0.276899,-0.0532 0.372381,-0.159593 0.0082,0.05275 0.02172,0.09753 0.0399,0.132995 h 0.397957 v -0.02353 c -0.0382,-0.07185 -0.0574,-0.17812 -0.05831,-0.31816 v -0.639392 c 0,-0.165502 -0.05434,-0.293721 -0.161639,-0.384657 -0.106394,-0.09185 -0.249845,-0.138108 -0.431716,-0.138108 z m 4.64658,0 c -0.153682,0 -0.277923,0.05729 -0.373405,0.171868 l -0.0133,-0.144247 h -0.366243 v 2.042981 h 0.394887 v -0.695657 c 0.09185,0.103667 0.211994,0.1555 0.361129,0.1555 0.175505,0 0.314636,-0.0682 0.417394,-0.204606 0.103666,-0.137312 0.155499,-0.318955 0.155499,-0.546295 v -0.02046 c 0,-0.236431 -0.05047,-0.421941 -0.151407,-0.556526 -0.100939,-0.134584 -0.242685,-0.202558 -0.424555,-0.202558 z m 2.196433,0 c -0.14004,0 -0.262917,0.03137 -0.369311,0.09412 -0.105485,0.06275 -0.1871,0.151408 -0.243481,0.265987 -0.05637,0.114579 -0.08389,0.245413 -0.08389,0.391818 v 0.01739 c 0,0.234614 0.06286,0.420122 0.189259,0.556526 0.127309,0.136403 0.2977,0.204604 0.510489,0.204604 0.212789,0 0.382043,-0.0682 0.508443,-0.204604 0.126401,-0.137313 0.18926,-0.318843 0.189261,-0.545273 l -0.0021,-0.101279 c -0.01455,-0.209152 -0.08537,-0.374314 -0.211766,-0.496167 -0.12549,-0.121854 -0.287811,-0.183121 -0.48696,-0.183121 z m 1.658324,0 c -0.14004,0 -0.249276,0.06809 -0.328391,0.203581 l -0.01125,-0.17596 h -0.372381 v 1.476226 h 0.394887 V 18.78925 c 0.04638,-0.100939 0.143452,-0.151407 0.292586,-0.151407 0.04092,0 0.08854,0.003 0.142201,0.01024 l 0.0051,-0.37852 c -0.0382,-0.01182 -0.07911,-0.01841 -0.122763,-0.01841 z m 0.91663,0 c -0.134584,0 -0.254618,0.03251 -0.360105,0.09616 -0.104575,0.06275 -0.185166,0.152773 -0.242456,0.27008 -0.0573,0.116397 -0.08593,0.248708 -0.08593,0.396933 v 0.03785 c 0,0.220973 0.06809,0.398185 0.203583,0.53095 0.136402,0.132766 0.312476,0.198467 0.528904,0.198467 0.122762,0 0.234613,-0.02319 0.335551,-0.06957 0.100938,-0.04729 0.181303,-0.112759 0.240411,-0.19642 l -0.194374,-0.21688 c -0.08548,0.110032 -0.20415,0.165731 -0.356013,0.165731 -0.09821,0 -0.178915,-0.02979 -0.243479,-0.08798 -0.06365,-0.0582 -0.101849,-0.134812 -0.114579,-0.231204 h 0.939136 v -0.161636 c 0,-0.233704 -0.05751,-0.41387 -0.173913,-0.54118 -0.115488,-0.127309 -0.274853,-0.191306 -0.476731,-0.191306 z m 1.587736,0 c -0.140042,0 -0.249277,0.06809 -0.328392,0.203581 l -0.01125,-0.17596 h -0.37238 v 1.476226 h 0.394883 V 18.78925 c 0.04637,-0.100939 0.143451,-0.151407 0.292586,-0.151407 0.04092,0 0.08854,0.003 0.1422,0.01024 l 0.0051,-0.37852 c -0.0382,-0.01182 -0.07911,-0.01841 -0.122763,-0.01841 z m -8.639447,0.02762 0.418417,0.723279 -0.437855,0.752947 h 0.424556 l 0.261894,-0.464454 0.262918,0.464454 H 16.57859 L 16.140735,19.00204 16.560176,18.278761 H 16.13869 l -0.247573,0.440923 -0.243479,-0.440924 z m -4.78878,0.291563 c 0.08366,0 0.147884,0.02444 0.193352,0.07264 0.04547,0.04729 0.06876,0.114238 0.07059,0.201535 v 0.03172 h -0.548342 c 0.01364,-0.09821 0.0449,-0.173346 0.09309,-0.226089 0.0491,-0.05275 0.113101,-0.0798 0.191305,-0.0798 z m 9.265537,0 c 0.0973,0 0.172437,0.03807 0.226089,0.113556 0.05365,0.07547 0.08082,0.18187 0.08082,0.319182 0,0.160957 -0.02717,0.278264 -0.08082,0.351922 -0.05365,0.07275 -0.127536,0.109464 -0.223019,0.109464 -0.09821,0 -0.174369,-0.03683 -0.227112,-0.110488 -0.05275,-0.07457 -0.07878,-0.182212 -0.07878,-0.322252 0,-0.157318 0.02603,-0.273262 0.07878,-0.347828 0.05275,-0.07547 0.127651,-0.113556 0.224042,-0.113556 z m 2.573932,0 c 0.08366,0 0.147884,0.02444 0.193352,0.07264 0.04547,0.04729 0.06979,0.114238 0.07161,0.201535 v 0.03172 h -0.548341 c 0.01365,-0.09821 0.04388,-0.173346 0.09208,-0.226089 0.0491,-0.05275 0.113101,-0.0798 0.191306,-0.0798 z m -4.873691,0.0021 c 0.09275,0 0.16357,0.03694 0.211766,0.11151 0.0491,0.07457 0.07365,0.180848 0.07365,0.318161 0,0.30827 -0.09412,0.462407 -0.282357,0.462407 -0.123671,0 -0.209605,-0.04899 -0.257801,-0.146293 v -0.604613 c 0.04638,-0.09457 0.13106,-0.141177 0.254733,-0.141177 z M 12.909,19.083935 h 0.147316 v 0.25371 c -0.02365,0.04365 -0.06037,0.07798 -0.109465,0.104349 -0.0491,0.02546 -0.102415,0.03888 -0.160614,0.03888 -0.06002,0 -0.107645,-0.01626 -0.142201,-0.04809 -0.03455,-0.03182 -0.05116,-0.07264 -0.05116,-0.121741 l 10e-4,-0.02251 c 0.01273,-0.136402 0.117761,-0.204604 0.315091,-0.204604 z"
       style="font-style:normal;font-variant:normal;font-weight:bold;font-stretch:normal;font-size:5.33333349px;line-height:1.25;font-family:Roboto;-inkscape-font-specification:'Roboto, Bold';font-variant-ligatures:normal;font-variant-caps:normal;font-variant-numeric:normal;font-feature-settings:normal;text-align:start;letter-spacing:0px;word-spacing:0px;writing-mode:lr-tb;text-anchor:start;fill:#4d4d4d;fill-opacity:1;stroke:none;stroke-width:0.52378881" /><path
       id="text4819-6"
       d="m 18.186728,17.547869 v 2.095155 h 0.395909 V 17.547869 Z M 7.2198916,17.65631 v 1.986714 H 7.6291019 V 19.099798 L 7.5881799,18.16373 8.1232227,19.643024 H 8.404554 l 0.5360652,-1.480317 -0.040922,0.937091 v 0.543226 h 0.410232 V 17.65631 H 8.7728412 L 8.265421,19.096729 7.7549309,17.65631 Z m 6.4061894,0 v 1.986714 h 1.330956 V 19.31361 h -0.921745 v -0.531973 h 0.785683 V 18.46143 h -0.785683 v -0.473661 h 0.918676 V 17.65631 Z m -2.392855,0.147315 v 0.363174 h -0.215858 v 0.289516 h 0.215858 v 0.79489 c 0.0055,0.279173 0.146065,0.418418 0.42251,0.418418 0.08185,0 0.162092,-0.01114 0.239387,-0.03479 V 19.33611 c -0.03365,0.0063 -0.07298,0.0092 -0.116625,0.0092 -0.05911,0 -0.09878,-0.01217 -0.119694,-0.03581 -0.02092,-0.02365 -0.03172,-0.06206 -0.03172,-0.116625 v -0.736578 h 0.252688 v -0.28949 h -0.252686 v -0.363173 z m -0.95346,0.335553 c -0.134585,0 -0.25462,0.03251 -0.360106,0.09616 -0.104577,0.06275 -0.185169,0.152772 -0.2424595,0.270078 -0.05728,0.116398 -0.08593,0.248709 -0.08593,0.396934 v 0.03785 c 0,0.220973 0.067062,0.398184 0.20256,0.530949 0.1364045,0.132766 0.3135025,0.198467 0.5299285,0.198467 0.122764,0 0.234614,-0.02319 0.335552,-0.06957 0.100939,-0.04729 0.180281,-0.112759 0.23939,-0.19642 l -0.193354,-0.216873 c -0.08548,0.110032 -0.20415,0.16573 -0.356013,0.16573 -0.09821,0 -0.179939,-0.02979 -0.244502,-0.08798 -0.06365,-0.0582 -0.101849,-0.134812 -0.1145795,-0.231204 h 0.9401615 v -0.161636 c 0,-0.233704 -0.05854,-0.41387 -0.174939,-0.54118 -0.115488,-0.12731 -0.273829,-0.191306 -0.475707,-0.191306 z m 2.421502,0 c -0.120036,0 -0.228931,0.02159 -0.325322,0.06343 -0.09639,0.04092 -0.170278,0.09707 -0.223021,0.169822 -0.05275,0.07275 -0.0798,0.151862 -0.0798,0.237341 h 0.394888 c 0,-0.05547 0.01796,-0.09912 0.05524,-0.130947 0.0382,-0.03182 0.09116,-0.04706 0.157546,-0.04706 0.07547,0 0.130152,0.02045 0.164707,0.06137 0.03547,0.04092 0.0532,0.09548 0.0532,0.163684 v 0.08389 H 12.71763 c -0.219154,9.4e-4 -0.386931,0.0432 -0.503328,0.126855 -0.115488,0.08366 -0.173915,0.203695 -0.173915,0.360105 0,0.127309 0.04763,0.233475 0.142201,0.317137 0.09548,0.08366 0.215517,0.124809 0.360104,0.124809 0.152772,0 0.276899,-0.0532 0.372382,-0.159592 0.0082,0.05275 0.02172,0.09753 0.03989,0.132993 h 0.397957 v -0.02352 c -0.0382,-0.07185 -0.0574,-0.17812 -0.05831,-0.31816 v -0.639391 c 0,-0.165504 -0.05434,-0.293722 -0.161638,-0.384657 -0.106394,-0.09185 -0.249845,-0.138108 -0.431716,-0.138108 z m 4.646579,0 c -0.153681,0 -0.277922,0.05729 -0.373404,0.171868 l -0.0133,-0.144247 h -0.366242 v 2.042981 h 0.394887 v -0.695657 c 0.09185,0.103667 0.211994,0.1555 0.361128,0.1555 0.175506,0 0.314637,-0.0682 0.417394,-0.204606 0.103667,-0.137312 0.1555,-0.318955 0.1555,-0.546295 v -0.02045 c 0,-0.236432 -0.05047,-0.421941 -0.151407,-0.556526 -0.100939,-0.134584 -0.242685,-0.202558 -0.424556,-0.202558 z m 2.196434,0 c -0.14004,0 -0.262917,0.03137 -0.369311,0.09412 -0.105486,0.06275 -0.187101,0.151408 -0.243481,0.265987 -0.05637,0.11458 -0.08389,0.245412 -0.08389,0.391818 v 0.01739 c 0,0.234614 0.06286,0.420123 0.189259,0.556526 0.12731,0.136404 0.2977,0.204605 0.51049,0.204605 0.212789,0 0.382043,-0.0682 0.508443,-0.204605 0.126401,-0.137312 0.18926,-0.318842 0.189261,-0.545272 l -0.0021,-0.101279 c -0.01455,-0.209152 -0.08537,-0.374314 -0.211766,-0.496167 -0.125491,-0.121854 -0.287811,-0.183122 -0.48696,-0.183122 z m 1.658323,0 c -0.14004,0 -0.249276,0.06809 -0.328391,0.203581 l -0.01125,-0.17596 h -0.372381 v 1.476225 h 0.394887 v -0.965736 c 0.04637,-0.100938 0.143451,-0.151407 0.292586,-0.151407 0.04092,0 0.08854,0.003 0.1422,0.01024 l 0.0051,-0.378521 c -0.0382,-0.01182 -0.07911,-0.01841 -0.122764,-0.01841 z m 0.916631,0 c -0.134585,0 -0.25462,0.03251 -0.360105,0.09616 -0.104575,0.06275 -0.185167,0.152772 -0.242456,0.270078 -0.0573,0.116398 -0.08593,0.248709 -0.08593,0.396934 v 0.03785 c 0,0.220973 0.06809,0.398184 0.203583,0.530949 0.136403,0.132766 0.312477,0.198467 0.528903,0.198467 0.122763,0 0.234614,-0.02319 0.335553,-0.06957 0.100938,-0.04729 0.181303,-0.112759 0.24041,-0.19642 L 22.544814,19.18675 c -0.08548,0.110033 -0.20415,0.16573 -0.356013,0.16573 -0.09821,0 -0.178916,-0.02979 -0.24348,-0.08798 -0.06365,-0.0582 -0.101848,-0.134812 -0.114579,-0.231204 h 0.939137 V 18.87166 c 0,-0.233704 -0.05751,-0.413869 -0.173914,-0.54118 -0.115488,-0.127309 -0.274852,-0.191305 -0.47673,-0.191305 z m 1.587735,0 c -0.140041,0 -0.249277,0.06809 -0.328391,0.203581 l -0.01125,-0.17596 h -0.372381 v 1.476225 h 0.394888 v -0.965736 c 0.04637,-0.100938 0.143451,-0.151407 0.292586,-0.151407 0.04092,0 0.08854,0.003 0.142199,0.01024 l 0.0051,-0.378521 c -0.0382,-0.01182 -0.07911,-0.01841 -0.122763,-0.01841 z m -8.639446,0.02762 0.418417,0.72328 -0.437855,0.752945 h 0.424556 l 0.261894,-0.464454 0.262917,0.464454 h 0.423533 l -0.437855,-0.752945 0.41944,-0.72328 h -0.421485 l -0.247573,0.440923 -0.243479,-0.440923 z m -4.788782,0.291562 c 0.08366,0 0.147884,0.02444 0.193352,0.07264 0.04547,0.04729 0.06877,0.114237 0.07059,0.201536 v 0.03172 H 9.9943415 c 0.01364,-0.09821 0.0449,-0.173347 0.09309,-0.226089 0.0491,-0.05275 0.113101,-0.07979 0.191306,-0.07979 z m 9.265539,0 c 0.0973,0 0.172436,0.03808 0.226089,0.113557 0.05365,0.07547 0.08082,0.18187 0.08082,0.319182 0,0.160957 -0.02717,0.278264 -0.08082,0.351921 -0.05365,0.07275 -0.127537,0.109464 -0.22302,0.109464 -0.09821,0 -0.174368,-0.03682 -0.227111,-0.110487 -0.05275,-0.07457 -0.07878,-0.182212 -0.07878,-0.322252 0,-0.157318 0.02603,-0.273262 0.07878,-0.347828 0.05275,-0.07547 0.12765,-0.113557 0.224042,-0.113557 z m 2.573931,0 c 0.08366,0 0.147885,0.02444 0.193353,0.07264 0.04547,0.04729 0.06979,0.114237 0.07161,0.201536 v 0.03172 h -0.548342 c 0.01365,-0.09821 0.04388,-0.173347 0.09208,-0.226089 0.0491,-0.05275 0.113101,-0.07979 0.191306,-0.07979 z m -4.87369,0.0021 c 0.09275,0 0.163569,0.03694 0.211765,0.11151 0.0491,0.07457 0.07365,0.180848 0.07365,0.318161 0,0.308271 -0.09412,0.462407 -0.282355,0.462407 -0.123672,0 -0.209606,-0.04899 -0.257802,-0.146293 v -0.604633 c 0.04638,-0.09457 0.131061,-0.141177 0.254734,-0.141177 z m -4.493127,0.511513 h 0.147316 v 0.253709 c -0.02365,0.04365 -0.06037,0.07798 -0.109464,0.104349 -0.0491,0.02547 -0.102415,0.03888 -0.160614,0.03888 -0.06002,0 -0.107645,-0.01626 -0.142201,-0.04809 -0.03455,-0.03183 -0.05116,-0.07264 -0.05116,-0.12174 l 0.001,-0.02251 c 0.01273,-0.136404 0.117762,-0.204605 0.315091,-0.204605 z"
       style="font-style:normal;font-variant:normal;font-weight:bold;font-stretch:normal;font-size:5.33333349px;line-height:1.25;font-family:Roboto;-inkscape-font-specification:'Roboto, Bold';font-variant-ligatures:normal;font-variant-caps:normal;font-variant-numeric:normal;font-feature-settings:normal;text-align:start;letter-spacing:0px;word-spacing:0px;writing-mode:lr-tb;text-anchor:start;display:inline;fill:#ececec;fill-opacity:1;stroke:none;stroke-width:0.52378881" /></g><g
     id="layer4"><g
       transform="translate(3.491517,2)"
       id="g881"><g
         id="layer1-7"
         style="display:inline" /><g
         id="layer2-2"
         style="display:none;opacity:0.36800005"><rect
           style="fill:#0000ff;fill-rule:evenodd;stroke-width:0.77459663"
           id="rect4522-97"
           width="8"
           height="3"
           x="13"
           y="5" /><rect
           style="fill:#0000ff;fill-rule:evenodd;stroke-width:0.77459669"
           id="rect4522-9-0"
           width="8"
           height="3"
           x="13"
           y="16" /><rect
           style="fill:#0000ff;fill-rule:evenodd;stroke-width:0.59160793"
           id="rect4522-9-6-8"
           width="6.9999995"
           height="2"
           x="13"
           y="11" /><rect
           style="fill:#0000ff;fill-rule:evenodd;stroke-width:0.96076894"
           id="rect4575-0"
           width="3"
           height="12"
           x="8"
           y="6" /><path
           style="fill:#0000ff;fill-rule:evenodd;stroke-width:1.03774905"
           d="M 4.5,5 C 3.669,5 3,5.669 3,6.5 v 11 C 3,18.331 3.669,19 4.5,19 5.331,19 6,18.331 6,17.5 V 6.5 C 6,5.669 5.331,5 4.5,5 Z"
           id="rect4575-3-3" /></g><g
         id="layer3-1"
         style="display:inline"><path
           style="opacity:1;fill:#86c5f2;fill-opacity:1;stroke:#86c5f2;stroke-width:1;stroke-linecap:butt;stroke-linejoin:miter;stroke-miterlimit:4;stroke-dasharray:none;stroke-dashoffset:10;stroke-opacity:1"
           d="M 6,5 C 3,5 3,8 3,8 V 19 C 3,19 6,19 6,16 6,13 6,5 6,5 Z"
           id="path4601-8" /><path
           style="opacity:1;fill:#86c5f2;fill-opacity:1;stroke:#86c5f2;stroke-width:1;stroke-linecap:butt;stroke-linejoin:miter;stroke-miterlimit:4;stroke-dasharray:none;stroke-dashoffset:10;stroke-opacity:1"
           d="m 14,8 c 0,-3 3,-3 3,-3 h 4 c 0,0 0,3 -3,3 z"
           id="path4626-8" /><path
           style="opacity:1;fill:#86c5f2;fill-opacity:1;stroke:#86c5f2;stroke-width:1;stroke-linecap:butt;stroke-linejoin:miter;stroke-miterlimit:4;stroke-dasharray:none;stroke-dashoffset:10;stroke-opacity:1"
           d="m 14,13 c 0,-2 2,-2 2,-2 h 4 c 0,0 0,2 -2,2 z"
           id="path4628-0" /><path
           style="opacity:1;fill:#86c5f2;fill-opacity:1;stroke:#86c5f2;stroke-width:1;stroke-linecap:butt;stroke-linejoin:miter;stroke-miterlimit:4;stroke-dasharray:none;stroke-dashoffset:10;stroke-opacity:1"
           d="m 21,19 c 0,-3 -3,-3 -3,-3 h -4 c 0,0 0,3 3,3 z"
           id="path4626-4-3" /><path
           style="display:inline;opacity:1;fill:#86c5f2;fill-opacity:1;stroke:#86c5f2;stroke-width:1;stroke-linecap:butt;stroke-linejoin:miter;stroke-miterlimit:4;stroke-dasharray:none;stroke-dashoffset:10;stroke-opacity:1"
           d="m 8.5084746,5 c 3.0000084,0 3.0000084,3 3.0000084,3 v 11 c 0,0 -3.0000084,0 -3.0000084,-3 0,-3 0,-11 0,-11 z"
           id="path4601-9" /></g></g></g></svg>