<?xml version="1.0" encoding="UTF-8" standalone="no"?>
<svg
   xmlns:dc="http://purl.org/dc/elements/1.1/"
   xmlns:cc="http://creativecommons.org/ns#"
   xmlns:rdf="http://www.w3.org/1999/02/22-rdf-syntax-ns#"
   xmlns:svg="http://www.w3.org/2000/svg"
   xmlns="http://www.w3.org/2000/svg"
   xmlns:sodipodi="http://sodipodi.sourceforge.net/DTD/sodipodi-0.dtd"
   xmlns:inkscape="http://www.inkscape.org/namespaces/inkscape"
   version="1.1"
   width="24"
   height="24"
   viewBox="0 0 24.00 24.00"
   enable-background="new 0 0 24.00 24.00"
   xml:space="preserve"
   id="svg16"
   sodipodi:docname="metaexplorer_2.svg"
   inkscape:version="0.92.2 (5c3e80d, 2017-08-06)"><metadata
     id="metadata22"><rdf:RDF><cc:Work
         rdf:about=""><dc:format>image/svg+xml</dc:format><dc:type
           rdf:resource="http://purl.org/dc/dcmitype/StillImage" /><dc:title></dc:title></cc:Work></rdf:RDF></metadata><defs
     id="defs20" /><sodipodi:namedview
     pagecolor="#ffffff"
     bordercolor="#666666"
     borderopacity="1"
     objecttolerance="10"
     gridtolerance="10"
     guidetolerance="10"
     inkscape:pageopacity="0"
     inkscape:pageshadow="2"
     inkscape:window-width="2400"
     inkscape:window-height="1321"
     id="namedview18"
     showgrid="true"
     inkscape:zoom="27.812867"
     inkscape:cx="7.4234539"
     inkscape:cy="11.860756"
     inkscape:window-x="-9"
     inkscape:window-y="-9"
     inkscape:window-maximized="1"
     inkscape:current-layer="layer3"
     showguides="false"><inkscape:grid
       type="xygrid"
       id="grid829" /></sodipodi:namedview><g
     inkscape:groupmode="layer"
     id="layer1"
     inkscape:label="Layer 1"
     style="display:inline"
     sodipodi:insensitive="true" /><g
     inkscape:groupmode="layer"
     id="layer2"
     inkscape:label="Layer 2"
     sodipodi:insensitive="true"
     style="display:none;opacity:0.36800005"><rect
       style="fill:#0000ff;fill-rule:evenodd;stroke-width:0.77459663"
       id="rect4522"
       width="8"
       height="3"
       x="13"
       y="5" /><rect
       style="fill:#0000ff;fill-rule:evenodd;stroke-width:0.77459669"
       id="rect4522-9"
       width="8"
       height="3"
       x="13"
       y="16" /><rect
       style="fill:#0000ff;fill-rule:evenodd;stroke-width:0.59160793"
       id="rect4522-9-6"
       width="6.9999995"
       height="2"
       x="13"
       y="11" /><rect
       style="fill:#0000ff;fill-rule:evenodd;stroke-width:0.96076894"
       id="rect4575"
       width="3"
       height="12"
       x="8"
       y="6" /><path
       style="fill:#0000ff;fill-rule:evenodd;stroke-width:1.03774905"
       d="M 4.5,5 C 3.669,5 3,5.669 3,6.5 v 11 C 3,18.331 3.669,19 4.5,19 5.331,19 6,18.331 6,17.5 V 6.5 C 6,5.669 5.331,5 4.5,5 Z"
       id="rect4575-3"
       inkscape:connector-curvature="0" /></g><g
     inkscape:groupmode="layer"
     id="layer3"
     inkscape:label="Layer 3"
     style="display:inline"><path
       style="fill:#86c5f2;stroke:#86c5f2;stroke-width:1;stroke-linecap:butt;stroke-linejoin:miter;stroke-opacity:1;fill-opacity:1;opacity:1;stroke-miterlimit:4;stroke-dasharray:none;stroke-dashoffset:10"
       d="M 6,5 C 3,5 3,8 3,8 V 19 C 3,19 6,19 6,16 6,13 6,5 6,5 Z"
       id="path4601"
       inkscape:connector-curvature="0" /><path
       style="opacity:1;fill:#86c5f2;fill-opacity:1;stroke:#86c5f2;stroke-width:1;stroke-linecap:butt;stroke-linejoin:miter;stroke-miterlimit:4;stroke-dasharray:none;stroke-dashoffset:10;stroke-opacity:1"
       d="m 14,8 c 0,-3 3,-3 3,-3 h 4 c 0,0 0,3 -3,3 z"
       id="path4626"
       inkscape:connector-curvature="0"
       sodipodi:nodetypes="cccsc" /><path
       style="opacity:1;fill:#86c5f2;fill-opacity:1;stroke:#86c5f2;stroke-width:1;stroke-linecap:butt;stroke-linejoin:miter;stroke-miterlimit:4;stroke-dasharray:none;stroke-dashoffset:10;stroke-opacity:1"
       d="m 14,13 c 0,-2 2,-2 2,-2 h 4 c 0,0 0,2 -2,2 z"
       id="path4628"
       inkscape:connector-curvature="0"
       sodipodi:nodetypes="cccsc" /><path
       style="opacity:1;fill:#86c5f2;fill-opacity:1;stroke:#86c5f2;stroke-width:1;stroke-linecap:butt;stroke-linejoin:miter;stroke-miterlimit:4;stroke-dasharray:none;stroke-dashoffset:10;stroke-opacity:1"
       d="m 21,19 c 0,-3 -3,-3 -3,-3 h -4 c 0,0 0,3 3,3 z"
       id="path4626-4"
       inkscape:connector-curvature="0"
       sodipodi:nodetypes="cccsc" /><path
       style="display:inline;opacity:1;fill:#86c5f2;fill-opacity:1;stroke:#86c5f2;stroke-width:1;stroke-linecap:butt;stroke-linejoin:miter;stroke-miterlimit:4;stroke-dasharray:none;stroke-dashoffset:10;stroke-opacity:1"
       d="m 8.5084746,5 c 3.0000084,0 3.0000084,3 3.0000084,3 v 11 c 0,0 -3.0000084,0 -3.0000084,-3 0,-3 0,-11 0,-11 z"
       id="path4601-9"
       inkscape:connector-curvature="0" /></g></svg>