<?xml version="1.0" encoding="UTF-8" standalone="no"?>
<svg
   xmlns:dc="http://purl.org/dc/elements/1.1/"
   xmlns:cc="http://creativecommons.org/ns#"
   xmlns:rdf="http://www.w3.org/1999/02/22-rdf-syntax-ns#"
   xmlns:svg="http://www.w3.org/2000/svg"
   xmlns="http://www.w3.org/2000/svg"
   xmlns:sodipodi="http://sodipodi.sourceforge.net/DTD/sodipodi-0.dtd"
   xmlns:inkscape="http://www.inkscape.org/namespaces/inkscape"
   version="1.1"
   width="30"
   height="30"
   viewBox="0 0 30 30"
   enable-background="new 0 0 24.00 24.00"
   xml:space="preserve"
   id="svg16"
   sodipodi:docname="entrepreneurs_v1.svg"
   inkscape:version="0.92.2 (5c3e80d, 2017-08-06)"><metadata
     id="metadata22"><rdf:RDF><cc:Work
         rdf:about=""><dc:format>image/svg+xml</dc:format><dc:type
           rdf:resource="http://purl.org/dc/dcmitype/StillImage" /><dc:title></dc:title></cc:Work></rdf:RDF></metadata><defs
     id="defs20" /><sodipodi:namedview
     pagecolor="#ffffff"
     bordercolor="#666666"
     borderopacity="1"
     objecttolerance="10"
     gridtolerance="10"
     guidetolerance="10"
     inkscape:pageopacity="0"
     inkscape:pageshadow="2"
     inkscape:window-width="2400"
     inkscape:window-height="1321"
     id="namedview18"
     showgrid="true"
     inkscape:zoom="22.627417"
     inkscape:cx="11.110373"
     inkscape:cy="14.134965"
     inkscape:window-x="-9"
     inkscape:window-y="-9"
     inkscape:window-maximized="1"
     inkscape:current-layer="layer2"
     showguides="false"
     inkscape:snap-grids="false"><inkscape:grid
       type="xygrid"
       id="grid829" /></sodipodi:namedview><g
     inkscape:groupmode="layer"
     id="layer2"
     inkscape:label="circle"
     style="display:inline"><path
       style="display:inline;opacity:1;fill:#86c5f2;fill-opacity:1;stroke:#e6e6e6;stroke-width:0;stroke-miterlimit:4;stroke-dasharray:none;stroke-dashoffset:0;stroke-opacity:1"
       d="M 15 0 C 6.7157288 0 0 6.7157288 0 15 C 0 23.284271 6.7157288 30 15 30 C 23.284271 30 30 23.284271 30 15 C 30 6.7157288 23.284271 0 15 0 z M 21.951172 4 C 20.784874 6.7963113 19.592268 9.5772321 19.042969 12.990234 A 3 3 0 0 1 18.591797 14.896484 A 3 3 0 0 1 18.203125 15.384766 L 19.210938 17.65625 L 17.068359 21.035156 C 17.751569 19.259306 18.170747 17.537583 16.808594 16.191406 A 3 3 0 0 1 14.453125 15.822266 A 3 3 0 0 1 13.115234 13.849609 C 11.316497 13.1909 9.9382919 14.302465 8.6230469 15.677734 L 10.765625 12.300781 L 13.25 12.244141 A 3 3 0 0 1 13.525391 11.683594 A 3 3 0 0 1 15.046875 10.46875 L 15.037109 10.462891 C 17.892215 8.5318166 19.930432 6.2709 21.951172 4 z M 12.058594 17.009766 C 12.470874 17.006296 12.874581 17.127476 13.216797 17.357422 C 14.154283 17.988376 14.402645 19.259919 13.771484 20.197266 C 13.516254 20.576195 13.141529 20.858786 12.707031 21 C 10.724604 22.277654 9.3125186 23.782902 7.8847656 25.277344 C 8.7499551 23.393597 9.6047729 21.501312 10.029297 19.189453 L 10.035156 19.195312 C 10.003234 18.741473 10.123505 18.289938 10.376953 17.912109 C 10.754276 17.352281 11.383497 17.014666 12.058594 17.009766 z M 12.789062 17.759766 C 12.07009 17.852279 11.463487 18.295325 11.160156 18.984375 C 10.635336 20.182907 10.740234 21.34375 10.740234 21.34375 C 10.740234 21.34375 10.893548 20.914808 11.332031 20.355469 C 11.620906 19.986972 12.440215 19.707365 12.792969 19.185547 C 13.327052 18.395497 12.789062 17.759766 12.789062 17.759766 z "
       id="circle922" /></g></svg>