<?xml version="1.0" encoding="UTF-8" standalone="no"?>
<!-- Created with Inkscape (http://www.inkscape.org/) -->

<svg
   xmlns:dc="http://purl.org/dc/elements/1.1/"
   xmlns:cc="http://creativecommons.org/ns#"
   xmlns:rdf="http://www.w3.org/1999/02/22-rdf-syntax-ns#"
   xmlns:svg="http://www.w3.org/2000/svg"
   xmlns="http://www.w3.org/2000/svg"
   xmlns:sodipodi="http://sodipodi.sourceforge.net/DTD/sodipodi-0.dtd"
   xmlns:inkscape="http://www.inkscape.org/namespaces/inkscape"
   width="100"
   height="100"
   viewBox="0 0 100 100"
   version="1.1"
   id="svg8"
   inkscape:version="0.92.2 (5c3e80d, 2017-08-06)"
   sodipodi:docname="butterfly_grey.svg">
  <defs
     id="defs2">
    <inkscape:path-effect
       effect="bend_path"
       id="path-effect101"
       is_visible="true"
       bendpath="m 19.743486,315.02136 c -6.92482,-5.29544 -0.61102,-13.03494 -4.88811,-16.09001 -4.2771,-3.05506 -7.73951,-9.97989 -3.46241,-15.68268 4.27709,-5.7028 -11.20191299,-11.20191 -11.20191299,-11.20191 40.32688299,-6.11013 44.09034299,18.54758 47.04803299,44.40031 2.82667,24.70756 -32.5828,40.89742 -36.66081,22.20014 -2.74891,-12.60354 11.20192,-20.57076 32.99473,-22.20014 21.99648,-1.62937 40.326,10.35897 31.7727,21.79281 -12.45428,16.64855 -30.14333,-4.2771 -27.49561,-29.73599 2.64773,-25.45888 11.40559,-40.53055 33.80941,-36.04978 0,0 -5.09178,3.05505 -6.11013,7.33214 -0.69652,2.92539 4.46638,6.90037 0.40734,10.99826 -5.82981,5.8856 -3.25874,11.40558 -4.48077,15.479 -1.2304,4.10136 -6.72114,7.33216 -6.72114,7.33216"
       prop_scale="0.21292275"
       scale_y_rel="false"
       vertical="false" />
    <inkscape:path-effect
       effect="bend_path"
       id="path-effect42"
       is_visible="true"
       bendpath="m -90.408652,239.7269 c 54.800775,8.33375 54.800775,8.33375 54.800775,8.33375 l -4.04061,14.14214"
       prop_scale="1"
       scale_y_rel="false"
       vertical="false" />
    <inkscape:path-effect
       effect="skeletal"
       id="path-effect4519"
       is_visible="true"
       pattern="m -142.95378,46.449069 c 0,-2.76 2.24,-5 5,-5 2.76,0 5,2.24 5,5 0,2.76 -2.24,5.000001 -5,5.000001 -2.76,0 -5,-2.240001 -5,-5.000001 z"
       copytype="single_stretched"
       prop_scale="0.24078434"
       scale_y_rel="false"
       spacing="0"
       normal_offset="0"
       tang_offset="0"
       prop_units="false"
       vertical_pattern="false"
       fuse_tolerance="0" />
    <inkscape:path-effect
       effect="skeletal"
       id="path-effect4515"
       is_visible="true"
       pattern="m -85.535714,-0.89285714 c 0,-2.75999996 2.24,-4.99999996 5,-4.99999996 2.76,0 5,2.24 5,4.99999996 0,2.76000004 -2.24,5.00000004 -5,5.00000004 -2.76,0 -5,-2.24 -5,-5.00000004 z"
       copytype="single_stretched"
       prop_scale="1"
       scale_y_rel="false"
       spacing="0"
       normal_offset="0"
       tang_offset="0"
       prop_units="false"
       vertical_pattern="false"
       fuse_tolerance="0" />
    <inkscape:path-effect
       effect="ellipse_5pts"
       id="path-effect4511"
       is_visible="true" />
    <inkscape:path-effect
       effect="skeletal"
       id="path-effect823"
       is_visible="true"
       pattern="M 0,5 C 0,2.24 2.24,0 5,0 7.76,0 10,2.24 10,5 10,7.76 7.76,10 5,10 2.24,10 0,7.76 0,5 Z"
       copytype="single_stretched"
       prop_scale="1"
       scale_y_rel="false"
       spacing="0"
       normal_offset="0"
       tang_offset="0"
       prop_units="false"
       vertical_pattern="false"
       fuse_tolerance="0" />
  </defs>
  <sodipodi:namedview
     id="base"
     pagecolor="#ffffff"
     bordercolor="#666666"
     borderopacity="1.0"
     inkscape:pageopacity="0.0"
     inkscape:pageshadow="2"
     inkscape:zoom="1.4"
     inkscape:cx="-39.113817"
     inkscape:cy="44.456297"
     inkscape:document-units="px"
     inkscape:current-layer="layer1"
     showgrid="false"
     units="px"
     inkscape:window-width="1920"
     inkscape:window-height="1017"
     inkscape:window-x="-8"
     inkscape:window-y="-8"
     inkscape:window-maximized="1" />
  <metadata
     id="metadata5">
    <rdf:RDF>
      <cc:Work
         rdf:about="">
        <dc:format>image/svg+xml</dc:format>
        <dc:type
           rdf:resource="http://purl.org/dc/dcmitype/StillImage" />
        <dc:title></dc:title>
      </cc:Work>
    </rdf:RDF>
  </metadata>
  <g
     inkscape:label="Ebene 1"
     inkscape:groupmode="layer"
     id="layer1"
     transform="translate(0,-270.54165)">
    <path
       transform="translate(7.0710677,10.606601)"
       style="fill:#999999;fill-opacity:1;stroke:none;stroke-width:1.14141726;stroke-miterlimit:4;stroke-dasharray:none;stroke-dashoffset:0"
       d="m 64.754806,313.59567 c 0,0 -3.7e-5,2e-5 -0.0017,-0.003 0,0 0,0 0,0 0,0 -10e-7,0 -10e-7,0 0,0 0,0 0,0 -0.05604,-0.12194 0.845602,-0.94705 2.66585,-2.44506 0.991862,-0.9703 2.879693,-2.86042 3.425744,-5.0736 0.502004,-1.82196 0.09439,-4.12542 0.294999,-6.94773 0.213125,-3.0008 1.458241,-6.34535 4.071185,-9.08068 3e-6,0 6e-6,0 6e-6,0 0.636553,-0.69578 1.157838,-1.55342 1.190657,-2.4057 0.07592,-0.72051 -0.154073,-1.52163 -0.475159,-2.3897 -0.31369,-0.80561 -0.765279,-1.65918 -1.163492,-2.65887 -0.359853,-0.78662 -0.638505,-1.84937 -0.421934,-3.09292 0.566954,-2.3486 1.992297,-4.34143 3.728186,-5.94594 0.615136,-0.58555 1.274051,-1.13764 1.972853,-1.65144 l 0,0 c 0.20645,-0.15194 0.419559,-0.30257 0.640021,-0.44997 0,0 1e-5,-10e-6 1e-5,-10e-6 l 0,0 c 0.114452,0.2654 0.230381,0.5314 0.347961,0.79826 0.03138,0.0712 0.06288,0.1425 0.09452,0.21388 0.0098,0.0223 0.0264,0.0596 0.0362,0.0819 -4.233776,-0.44578 -9.04593,-0.34211 -13.429194,1.54615 -3.426538,1.03994 -6.659076,3.21415 -9.115278,6.21767 -2.666978,3.23572 -4.457872,7.27259 -5.833198,11.71933 0,0 -4e-6,10e-6 -4e-6,10e-6 -1.601163,5.22946 -2.478686,10.76524 -3.061631,16.67011 -0.539928,5.56005 -0.144893,11.39006 1.462155,16.99912 1.281352,4.40639 3.225956,8.75018 6.276721,12.10391 1.192655,1.31032 2.519546,2.466 3.994599,3.23904 1.269263,0.66302 2.650908,1.08664 3.979569,1.07161 0,0 1.3e-5,0 1.3e-5,0 1.342072,0.0167 2.73933,-0.42163 3.988493,-1.14349 1.601941,-0.91497 2.981176,-2.36047 4.223224,-4.0002 0,0 1e-5,-10e-6 1e-5,-10e-6 0.784382,-1.08178 1.393225,-2.24789 1.595876,-3.42006 0.197656,-1.01247 0.118925,-2.10809 -0.204104,-3.11715 -0.688328,-2.43131 -2.881204,-4.46015 -5.333391,-6.19039 -7.233706,-4.93192 -16.735477,-6.22802 -25.968161,-5.5989 -4.161228,0.3404 -8.346098,0.82354 -12.339496,1.7219 -4.449927,1.00106 -8.655206,2.51608 -12.334967,4.91885 -2.377891,1.56559 -4.484004,3.4669 -5.588482,5.78159 -1.078912,2.1036 -1.274547,4.70141 -0.764088,7.1181 0.393998,1.69779 1.107025,3.28965 2.234319,4.32597 0,0 8e-6,0 8e-6,0 0.982384,0.98063 2.396462,1.61017 3.880956,1.90935 1.715611,0.34478 3.587375,0.20917 5.446976,-0.16389 0,0 1.5e-5,0 1.5e-5,0 2.146823,-0.44268 4.239817,-1.26347 6.225629,-2.30855 4.504006,-2.38509 8.351933,-5.91222 11.025193,-10.09116 2.920657,-4.57051 4.301991,-10.03305 3.720463,-15.17869 -0.717798,-6.49767 -1.40707,-12.56058 -2.792468,-18.48701 -1.316984,-5.55453 -3.122833,-10.68394 -6.176712,-14.85718 -3.156175,-4.38285 -7.797493,-7.4316 -12.624642,-8.95722 -7.609421,-3.02278 -16.0098668,-2.90181 -23.03960505,-2.26341 2.57593025,0.74069 5.05536795,1.48598 7.44146155,2.23565 1.6743036,1.04068 3.3039825,2.29995 4.4619415,4.06577 0,0 6e-6,10e-6 6e-6,10e-6 0.495296,0.75418 0.827279,1.67751 0.859554,2.69628 -0.01632,1.12094 -0.422929,2.10791 -1.020591,2.85947 -1.798204,2.27207 -2.139027,5.36351 -1.439424,7.81 0,0 4e-6,1e-5 4e-6,1e-5 0.786777,2.77067 2.52843,5.00755 4.445026,6.45065 1.250152,0.98126 1.787557,2.41642 1.864,3.68773 0.0982,1.51236 -0.154945,3.1429 -0.261304,4.25912 -0.157887,1.79608 -0.150677,3.13568 0.163407,4.3905 0.783207,3.25718 2.718675,4.32644 2.619953,4.45554 0.206573,-0.27014 -2.197273,-0.27033 -3.547465,-4.18137 -0.459549,-1.36455 -0.604405,-2.87858 -0.543082,-4.74288 0.03096,-1.18064 0.188242,-2.79128 0.02511,-4.03411 -0.133393,-0.9366 -0.541797,-1.9577 -1.324723,-2.42877 -2.270357,-1.54755 -4.381987,-4.01674 -5.4330268,-7.24622 2.5e-6,0 -2.7e-6,0 -2.7e-6,0 -0.9717575,-3.00969 -0.6949266,-6.7882 1.5138155,-9.85848 0.302074,-0.44802 0.518906,-0.9498 0.472813,-1.37361 0.0046,-0.41651 -0.21813,-0.89009 -0.520469,-1.37493 0,0 -4e-6,-10e-6 -4e-6,-10e-6 -0.7689427,-1.22742 -2.1042163,-2.13473 -3.6252063,-3.0962 -2.2543636,-1.48133 -4.5830637,-3.04766 -6.98853976,-4.70187 7.26471026,-1.52716 16.21718406,-2.76083 24.85682706,-0.81484 5.492359,1.63036 10.79161,5.00243 14.553799,10.02234 3.487291,4.7169 5.585432,10.28521 6.988307,16.10847 1.512185,6.1949 2.294412,12.4194 3.063658,18.91981 0.70886,6.13346 -0.814954,12.50247 -4.204098,17.86447 -3.044626,4.82181 -7.390436,8.86629 -12.532546,11.61945 -2.267586,1.2206 -4.730488,2.18973 -7.339423,2.75196 0,0 -1.9e-5,0 -1.9e-5,0 -2.256678,0.49674 -4.689145,0.64895 -7.134933,0.20939 -2.20062,-0.39538 -4.350117,-1.39336 -6.087261,-3.02261 0,0 -1.6e-5,-2e-5 -1.6e-5,-2e-5 -1.862034,-1.83249 -2.9966039,-4.15959 -3.4897654,-6.52933 -0.7332538,-3.28562 -0.4296273,-6.84209 1.0981452,-9.99542 1.6523652,-3.24506 4.2753922,-5.73386 7.1377252,-7.53565 4.258134,-2.69815 8.929187,-4.41771 13.728766,-5.53052 4.307701,-0.99877 8.711217,-1.50704 12.997791,-1.79825 9.887554,-0.78719 20.318883,0.78884 28.716884,6.39651 2.977968,1.93103 5.727715,4.73594 7.001352,8.484 0.531348,1.68183 0.64268,3.48103 0.306906,5.22666 -0.402467,1.95657 -1.276714,3.69762 -2.389522,5.15195 0,0 -1.1e-5,10e-6 -1.1e-5,10e-6 -1.450155,1.95913 -3.262105,3.76981 -5.508336,5.09268 -1.827176,1.06713 -3.939174,1.68118 -6.125274,1.67864 0,0 -2e-5,0 -2e-5,0 -2.137482,-0.0339 -4.162304,-0.63691 -5.917019,-1.60263 -1.995985,-1.09648 -3.68326,-2.558 -5.085542,-4.15716 -3.546786,-4.04356 -5.730391,-8.93184 -7.03679,-13.75682 -1.691637,-6.15839 -2.054137,-12.47239 -1.393444,-18.45672 0.659537,-6.04212 1.667317,-11.81482 3.436758,-17.3366 0,0 4e-6,-1e-5 4e-6,-1e-5 1.494662,-4.70764 3.582875,-9.11483 6.660747,-12.77846 2.923406,-3.45718 6.733039,-5.89181 10.787201,-7.05277 5.315928,-0.96449 10.711152,-0.0965 15.294684,1.22162 5.75e-4,0.036 0.0011,0.0669 0.0018,0.10287 -2.4e-4,-0.014 0.0047,0.28367 0.0045,0.26963 0.0055,0.33692 0.01023,0.67425 0.01413,1.01171 l 0,0 c 0,0 -8e-6,0 -8e-6,0 -0.183657,0.11602 -0.366724,0.23874 -0.549634,0.36613 l 0,0 c -0.618833,0.43146 -1.203259,0.89556 -1.749099,1.3885 -1.510063,1.41082 -2.733085,2.90562 -3.12207,4.57208 -0.163026,0.35286 0.05342,0.95949 0.259276,1.65981 0.332612,0.92553 0.751916,1.78175 1.084528,2.70728 0.388508,1.03938 0.626315,2.1986 0.511916,3.41615 -0.199769,1.5157 -0.971382,2.77074 -1.910968,3.66609 0,0 -4e-6,1e-5 -4e-6,1e-5 -2.339757,2.26463 -3.567451,5.13849 -3.86541,7.75745 -0.282348,2.48829 -0.04696,5.04415 -0.729936,7.17213 -0.912673,2.64392 -3.049793,4.43453 -4.194181,5.31379 -2.020531,1.32332 -3.067396,1.92956 -3.156279,1.83174 0,0 0,0 0,0 0,0 -10e-7,0 -10e-7,0 0,0 0,0 0,0 -0.002,-0.003 -0.002,-0.003 -0.002,-0.003 z"
       id="path13" />
  </g>
</svg>
