<?xml version="1.0" encoding="UTF-8" standalone="no"?>
<svg
   xmlns:dc="http://purl.org/dc/elements/1.1/"
   xmlns:cc="http://creativecommons.org/ns#"
   xmlns:rdf="http://www.w3.org/1999/02/22-rdf-syntax-ns#"
   xmlns:svg="http://www.w3.org/2000/svg"
   xmlns="http://www.w3.org/2000/svg"
   height="512"
   width="512"
   id="svg12"
   y="0px"
   x="0px"
   version="1.1"
   preserveAspectRatio="none">
  <metadata
     id="metadata18">
    <rdf:RDF>
      <cc:Work
         rdf:about="">
        <dc:format>image/svg+xml</dc:format>
        <dc:type
           rdf:resource="http://purl.org/dc/dcmitype/StillImage" />
        <dc:title></dc:title>
      </cc:Work>
    </rdf:RDF>
  </metadata>
  <defs
     id="defs16" />
  <g
     transform="translate(-414.57212,-444.30284)"
     id="g10">
    <path
       style="fill:#383838;fill-opacity:1;stroke-width:1.64535379"
       id="path2"
       d="m 543.76792,578.12023 q 1.48082,-1.56307 2.96164,-3.04389 48.20889,-48.20889 116.32655,-48.20889 68.11762,0 116.3265,48.20889 3.2907,3.2907 6.33461,6.66368 l 2.05668,15.46632 q -6.49914,-8.39129 -14.31459,-16.20674 -45.74081,-45.74083 -110.4032,-45.74083 -64.66242,0 -110.40327,45.74083 -2.22122,2.22124 -4.27791,4.52473 l -4.60701,-7.4041 m 222.04052,230.92539 9.46078,2.71484 q -46.97484,44.17777 -112.21311,44.17777 -62.52345,0 -108.2643,-40.64025 l 11.18839,-1.48082 q 41.54518,33.72975 97.07591,33.72975 59.31499,0 102.75233,-38.50129" />
    <path
       style="stroke-width:1.64535379"
       id="path4"
       d="m 785.71722,581.74002 2.05668,15.46632 m -239.39897,-11.68201 -4.60701,-7.4041 m 222.04052,230.92539 9.46078,2.71484 m -220.47741,3.53752 11.18839,-1.48082" />
    <path
       style="fill:#ffffff;stroke-width:1.64535379"
       id="path6"
       d="m 744.17202,694.11767 q -6.25234,-1.64535 -13.16281,5.92328 -6.91049,7.65089 -10.2012,20.15557 -3.37299,12.42244 -1.15175,22.37682 2.13896,10.11894 8.39131,11.76428 6.33461,1.72761 13.2451,-5.92328 3.70204,-4.19566 6.41687,-9.78985 1.06948,-5.18286 2.7971,-10.69479 1.06948,-3.61978 2.46802,-7.40409 1.0695,-7.89771 -0.32905,-14.64366 -2.13897,-10.03665 -8.47359,-11.76428 m 35.29286,-122.16751 14.89044,6.00555 q 5.42966,57.99871 -15.3018,106.53664 -25.25616,52.23998 -23.03495,71.07928 l -10.69479,1.39855 q 0.0822,-3.20843 0.49361,-6.5814 -0.16453,0.0822 -0.2468,0.16454 -9.04946,7.48634 -18.42799,4.93604 -9.46077,-2.46803 -13.65642,-13.49188 -4.11339,-11.02388 -0.65814,-24.02218 3.45524,-12.99829 12.5047,-20.40239 9.13169,-7.40408 18.59249,-4.93606 9.37852,2.5503 13.4919,13.49191 0.32906,0.82268 0.57588,1.64535 0.24679,-0.74042 0.57587,-1.39855 2.71483,-6.25234 5.92326,-12.83377 0.74042,-1.89214 1.48082,-3.78431 2.5503,-6.58141 5.51195,-13.4919 21.80094,-49.93649 7.97997,-104.31542 M 711.59403,690.4979 q 0.16454,25.74979 -7.40409,46.15218 -0.0822,0.32906 -0.24682,0.65812 -2.63256,4.36019 -3.94884,6.49916 -3.0439,4.68926 -9.13171,17.19394 -6.08781,12.42245 -13.32737,36.36232 115.83291,0.0822 197.68925,57.91647 -83.99531,-53.39174 -200.32181,-51.00598 -8.80264,25.1739 -11.84653,51.00598 -24.10445,-31.42628 -52.24001,-46.1522 -24.43349,0.74042 -83.25488,14.31459 -47.96208,11.10614 -58.8214,6.82823 -4.93608,-1.72762 -3.29071,-8.3913 6.5814,-26.73701 65.07375,-31.67309 48.5379,-3.86654 83.74849,11.92882 23.03494,-3.70205 55.11933,-5.51194 8.4736,-21.88319 17.85211,-41.29837 0.32909,-0.65814 0.65815,-1.23402 -6.49916,3.20843 -13.16283,1.39855 -9.46081,-2.46803 -13.65645,-13.49188 -4.11337,-11.02388 -0.65812,-24.02218 1.72761,-6.41688 4.77151,-11.4352 0.16455,-0.24681 0.32906,-0.49361 3.86657,-9.13171 -0.24681,-14.64365 l 9.21401,-0.65815 q 1.48082,2.0567 2.05668,4.27792 1.06948,4.52473 -1.64535,9.9544 -0.24681,0.32907 -0.41133,0.65815 -3.8666,6.17005 -6.08782,14.56136 -3.37298,12.42244 -1.15176,22.37682 2.13895,10.11894 8.39129,11.76428 6.33464,1.72761 13.24513,-5.92328 3.61977,-4.03112 6.74595,-9.46079 0.41134,-0.82265 0.90492,-1.64535 0.16456,-0.32906 0.41136,-0.65812 7.48636,-13.98553 7.56861,-31.67307 0.0822,-6.25234 -0.82266,-12.99829 l 7.8977,-1.48082 m -53.39174,145.8606 q 3.20846,-16.86485 8.22677,-31.91986 -22.04775,0.90494 -40.55797,2.96164 15.13726,8.72037 32.3312,28.95822 M 647.83657,705.88195 q -2.13897,-10.03665 -8.47357,-11.76428 -6.25235,-1.64535 -13.16282,5.92328 -5.42967,6.00554 -8.63813,15.05499 -0.82266,2.46803 -1.56309,5.10058 -1.4808,5.51195 -1.89213,10.53028 -1.56311,8.63811 0.32904,20.40237 0.16455,1.39855 0.49361,2.96164 -3.70204,3.78433 -8.80262,0.24681 -1.48082,-8.96718 0.32905,-25.17391 0,-0.0822 0,-0.16454 2.87938,-8.47356 3.70205,-17.27621 0.82268,-9.21398 -0.49359,-18.75703 l 8.55584,-2.22124 q 0.16452,4.607 0.16452,8.80265 0.98723,-1.06947 2.13896,-1.97443 9.13172,-7.40408 18.59251,-4.93606 9.37848,2.5503 13.49188,13.49191 4.19567,11.02387 0.74042,24.02214 -1.15174,4.36021 -2.96165,8.1445 -2.30348,14.15007 2.3035,15.3018 -3.20841,4.36019 -8.96719,1.23401 -1.06944,-2.63255 -1.31625,-5.59419 -0.65815,-5.67645 1.31625,-12.50469 1.64539,-3.86659 2.87939,-8.39131 3.29072,-12.50467 1.23402,-22.45907 m 196.37296,-13.82096 q 0.65815,-0.0822 1.39856,0 0.57588,0 6.74595,1.15174 6.17008,1.06948 22.70588,4.85379 28.21781,3.94885 39.48849,-5.10059 0.74042,-0.65815 1.39854,-1.31628 0.16453,-0.16454 0.32909,-0.32908 0.16452,-0.0822 0.2468,-0.2468 1.23402,-1.15175 1.23402,-2.87938 0,-1.72761 -1.23402,-2.96162 -1.15176,-1.15176 -2.87938,-1.15176 -1.72761,0 -2.96164,1.15176 -1.06946,1.15175 -1.15175,2.71483 0,-2.22123 2.13897,-3.78432 2.22122,-1.48082 5.3474,-1.48082 3.12616,0 5.26513,1.48082 2.22122,1.56309 2.22122,3.78432 0,0.41133 -0.0822,0.82267 -0.16454,0.98721 -0.90493,1.89217 -10.94162,20.07331 -69.43392,4.85379 -0.24682,-0.0822 -4.93607,-1.39856 -6.25236,-1.64535 -13.16284,5.92328 -6.49915,7.23955 -9.78986,18.75704 -5.84101,31.34397 -9.87212,36.52684 -4.3602,2.0567 -6.91048,-0.98721 5.18286,-10.11894 7.56862,-31.26171 0.24682,-1.89217 0.24682,-2.87939 1.97443,-13.57415 -5.26516,-23.69309 -0.41133,-5.67647 6.08781,-5.75874 4.77154,5.51194 6.82821,12.50469 2.38577,-3.20843 5.42967,-5.67647 6.82823,-5.59419 13.90327,-5.51192 m -40.31117,9.95438 q -2.46804,-6.00553 -7.65092,-7.32182 -2.96162,-0.82268 -5.92325,0.16453 -0.74043,0.2468 -1.48082,0.65815 -1.39856,0.57588 -2.71484,1.64535 -2.71482,2.05669 -4.44245,5.01833 -1.64537,2.63256 -2.46804,6.00555 -1.97443,6.82821 0.41134,12.83375 2.46803,5.92328 7.65091,7.32181 1.56308,0.41135 3.0439,0.41135 3.70205,-0.16454 7.23954,-2.96163 5.01835,-3.94885 6.91048,-10.9416 1.72763,-6.91049 -0.57585,-12.83377 m 3.86657,0.41134 q 1.39855,2.30349 2.13897,4.60698 1.31628,4.52473 0.0822,9.37854 -1.39856,5.18286 -5.3474,8.55583 -1.56309,1.31628 -3.53751,2.3035 -5.10058,2.79709 -10.77705,2.30348 -1.80993,-0.16452 -3.70206,-0.65815 -7.81543,-2.05669 -12.01108,-8.63808 -0.49361,-0.90496 -0.90494,-1.72763 -0.24682,0.82267 -0.49364,1.64534 -3.37294,12.42244 -1.15172,22.37682 1.56308,7.4041 6.17009,9.04946 5.59419,1.89215 11.76426,0.32906 0.16454,-0.0822 0.32909,-0.0822 4.60697,-1.31628 9.04943,-3.78431 3.70204,-2.46803 7.32183,0.41134 -2.71484,-0.32909 -6.82822,1.72763 -2.13897,1.39853 -5.10058,2.96162 -2.30352,1.15176 -4.44246,1.89215 -4.03113,1.3163 -7.73316,0.98722 -1.48082,-0.16455 -3.04392,-0.57588 -9.46077,-2.46801 -13.65643,-13.49188 -4.1134,-11.02388 -0.65815,-24.02218 2.96163,-11.18839 9.78986,-18.01661 2.5503,-2.63258 6.25234,-4.60702 4.36019,-2.30347 9.04946,-2.30347 2.71483,-0.0822 5.59419,0.74042 7.73317,2.05668 11.84654,8.63811 M 517.85364,563.55891 q -18.01664,-4.8538 -35.7042,9.54306 -17.68755,14.64364 -24.51577,39.9821 -6.74595,25.33843 1.31628,46.56349 8.06225,21.47189 26.07886,26.32567 4.77154,1.31629 10.94161,2.38576 5.1006,0.32908 11.4352,1.89217 0.98724,0.2468 1.97443,0.49359 5.75874,1.56309 10.85932,3.78433 2.38577,1.06947 4.607,2.30349 9.95439,5.3474 16.70034,13.82097 1.23402,1.48082 2.30351,3.04391 4.19562,5.92327 5.67647,12.01108 1.72763,6.99275 -0.0822,14.06777 0.49362,-1.48082 1.06949,-2.87937 1.89215,-5.10061 3.61979,-10.20119 0.65813,-2.05668 1.39853,-4.03111 -0.0822,0 -0.16452,0 -0.41134,0 -0.74043,0 -0.15942,-0.0796 -0.24678,-0.0822 h 1.15173 q 2.71484,-8.22679 5.01833,-16.28902 1.23401,-4.52473 2.38577,-9.04944 19.66199,-78.64792 -7.56862,-138.5388 l 13.57415,-8.63812 q 21.22506,61.61851 3.8666,141.33591 -0.41136,1.72762 -0.74042,3.45523 7.1573,-4.19562 14.64365,-2.22122 9.37851,2.55031 13.4919,13.4919 4.19565,11.02389 0.74042,24.02215 -1.15176,4.36021 -2.87939,8.06226 -2.30347,14.23231 2.30351,15.38404 -3.20845,4.36019 -8.96719,1.23403 -1.06946,-2.71485 -1.39855,-5.67648 -0.57587,-5.67647 1.3163,-12.42241 1.64534,-3.86659 2.87935,-8.3913 3.29072,-12.5047 1.23402,-22.45909 -2.13894,-10.03664 -8.47357,-11.76426 -6.25233,-1.64538 -13.16282,5.92326 -2.46803,2.7971 -4.52472,6.17006 -3.37298,12.9983 -7.6509,26.57247 -1.5631,4.8538 -3.2907,9.78986 -0.41134,1.15173 -0.82269,2.3035 -0.74041,2.05667 -1.48082,4.19566 -0.16452,0.41133 -0.49361,4.85379 -6.91049,-1.06948 -15.30178,4.85377 5.3474,-9.3785 6.58142,-12.42241 -5.42967,9.87211 -18.83931,14.97272 -17.19394,6.6637 -37.84313,1.15175 -20.56691,-5.51193 -32.3312,-19.90878 -11.59976,-14.39686 -7.56864,-29.20504 3.04392,-11.51746 14.23232,-18.0989 12.66923,-4.27791 15.21952,4.1134 -8.8849,7.15731 -11.92882,18.67475 -3.86657,14.23232 3.37298,26.90156 7.07502,12.75147 20.896,16.45351 13.73869,3.70208 26.32565,-3.78429 1.23402,-0.74042 2.46803,-1.56309 1.06949,-0.82267 2.22124,-1.64534 8.47356,-7.07503 11.59974,-18.42799 3.78431,-14.2323 -3.2907,-26.98379 -3.53752,-6.25232 -8.63812,-10.28347 -2.13895,-1.72762 -4.44246,-2.96162 -3.61977,-1.97443 -7.81542,-3.12618 -6.00555,-1.64536 -12.09335,-2.05668 -1.23402,-0.0822 -2.5503,-0.16453 -5.5942,-0.41134 -11.27068,-1.72762 -1.06948,-0.32911 -2.13895,-0.57591 -26.90154,-7.23953 -40.96932,-31.09716 -13.82096,-23.69309 -6.74595,-50.10104 7.07501,-26.40791 30.93267,-40.1466 24.10441,-13.57417 51.00595,-6.33464 26.90155,7.23957 40.72249,30.93265 14.06778,23.85764 6.99277,50.26557 -6.82822,25.33846 -29.28731,38.91263 -5.84099,-2.71485 -15.21951,-3.45524 0.41135,-0.41134 0.90494,-0.82272 17.60529,-14.47908 24.35124,-39.81755 6.8282,-25.33843 -1.15175,-46.72803 -8.06223,-21.30733 -26.07884,-26.16113 m -9.46079,259.47228 q 45.98764,-12.75149 93.78516,-18.01661 -30.10998,-12.91602 -67.2127,-9.95438 -57.91645,4.36017 -67.54177,25.33844 -3.2907,12.25788 40.96931,2.63255" />
    <path
       style="fill:#ffffff;stroke-width:1.64535379"
       id="path8"
       d="m 890.85532,749.23702 q 0,-2.79711 -1.97443,-4.77153 -1.89216,-1.97443 -4.52471,-1.97443 -2.63258,0 -4.607,1.97443 -1.89216,1.97442 -1.89216,4.77153 -0.0822,1.8099 0.90495,3.2907 0.82266,1.64538 2.30348,2.46805 1.5631,0.82267 3.29073,0.82267 1.80988,0.0822 3.2907,-0.82267 1.48082,-0.82267 2.30349,-2.46805 0.90495,-1.56307 0.90495,-3.2907 m -0.16455,-6.08781 q 2.30351,2.55029 2.30351,6.00553 0,3.53754 -2.38576,6.08782 -2.38578,2.55029 -6.25234,2.55029 -3.78433,0.0822 -6.25237,-2.55029 -2.38574,-2.63257 -2.38574,-6.08782 0,-3.37295 2.22122,-6.00553 2.63256,-2.79709 6.41689,-2.79709 3.86656,0.0822 6.33459,2.79709 m -39.89982,14.15003 q -0.57587,-0.57586 -0.57587,-1.31627 0,-0.74041 0.57587,-1.39856 0.57588,-0.4936 1.31628,-0.4936 0.82269,0 1.31628,0.4936 0.57588,0.57589 0.57588,1.39856 0.0822,0.74041 -0.57588,1.31627 -0.57586,0.49361 -1.31628,0.49361 -0.82267,-0.0822 -1.31628,-0.49361 m 5.75874,-8.06222 q 0,-2.3035 1.23401,-4.44244 1.23402,-2.05672 3.29072,-3.20845 2.22122,-1.23401 4.77152,-1.23401 1.64535,0 3.20844,0.57586 1.56309,0.49362 2.5503,1.3163 1.06946,0.74039 1.80989,2.05669 l -1.64535,0.98721 q -2.13897,-2.87938 -6.00555,-2.87938 -3.04391,0 -5.01833,1.97442 -2.0567,1.97443 -2.0567,4.68927 0,1.89216 0.98723,3.45523 0.90494,1.64538 2.46803,2.46805 1.64535,0.90492 3.61977,0.90492 3.70206,0 6.00555,-2.96161 l 1.64535,1.15173 q -1.15176,1.80988 -3.12617,2.79712 -1.97443,0.90492 -4.607,0.90492 -3.86658,0.16454 -6.49914,-2.46802 -2.63257,-2.46803 -2.63257,-6.08781 m 50.34783,-0.32906 q 0,-3.04392 -0.41134,-4.03113 -0.32908,-1.06947 -1.23403,-1.72762 -0.98721,-0.65815 -2.22122,-0.65815 -1.56308,-0.0822 -2.79709,0.90495 -1.23401,0.82267 -1.89216,2.38578 -0.65814,1.56307 -0.65814,4.60699 v 6.99275 h -2.13897 v -16.5358 h 2.13897 v 2.87934 q 1.23402,-1.64532 2.30349,-2.38574 1.64536,-0.98721 3.45524,-0.98721 1.23403,0 2.22124,0.49361 l 1.80988,1.23402 q 0.65815,0.82267 1.15176,2.30347 1.15173,-1.97442 2.71483,-2.96162 1.64533,-1.06948 3.45524,-1.06948 1.72762,0.0822 3.04389,0.90492 1.31628,0.90496 1.89215,2.46803 0.65815,1.56311 0.65815,4.60701 v 9.04945 h -2.13894 v -9.04945 q 0,-2.63258 -0.41136,-3.61977 -0.32906,-0.98724 -1.31627,-1.64536 -0.8227,-0.57589 -2.22123,-0.57589 -1.56308,-0.0822 -2.79709,0.90495 -1.23405,0.90496 -1.89216,2.38578 -0.5759,1.64534 -0.5759,5.10058 v 6.49916 h -2.13894 v -8.47357" />
  </g>
</svg>
