<?xml version="1.0" encoding="UTF-8" standalone="no"?>
<svg
   xmlns:dc="http://purl.org/dc/elements/1.1/"
   xmlns:cc="http://creativecommons.org/ns#"
   xmlns:rdf="http://www.w3.org/1999/02/22-rdf-syntax-ns#"
   xmlns:svg="http://www.w3.org/2000/svg"
   xmlns="http://www.w3.org/2000/svg"
   id="svg6"
   version="1.1"
   viewBox="0 0 24 24"
   height="24"
   width="24">
  <metadata
     id="metadata12">
    <rdf:RDF>
      <cc:Work
         rdf:about="">
        <dc:format>image/svg+xml</dc:format>
        <dc:type
           rdf:resource="http://purl.org/dc/dcmitype/StillImage" />
        <dc:title></dc:title>
      </cc:Work>
    </rdf:RDF>
  </metadata>
  <defs
     id="defs10" />
  <path
     id="path2"
     fill="none"
     d="M0 0h24v24H0z" />
  <path
     id="path4"
     d="M 5 3 C 3.9 3 3 3.9 3 5 L 3 19 C 3 20.1 3.9 21 5 21 L 19 21 C 20.1 21 21 20.1 21 19 L 21 5 C 21 3.9 20.1 3 19 3 L 5 3 z M 6.8867188 4.8730469 L 8.6816406 4.8730469 C 8.8717845 4.8730469 9.0253906 5.0824847 9.0253906 5.34375 L 9.0253906 12.339844 L 9.7539062 11.728516 L 10.625 12.189453 L 10.625 9.6796875 C 10.625 9.5066687 10.778606 9.3671875 10.96875 9.3671875 L 12.761719 9.3671875 C 12.951863 9.3671875 13.105469 9.5066687 13.105469 9.6796875 L 13.105469 13.5 L 13.447266 13.681641 L 14.542969 12.763672 L 14.542969 7.7695312 C 14.542969 7.5582956 14.696575 7.3886719 14.886719 7.3886719 L 16.681641 7.3886719 C 16.871785 7.3886719 17.025391 7.5582955 17.025391 7.7695312 L 17.025391 10.683594 L 18.75 9.2382812 L 19.507812 10.189453 L 17.025391 12.269531 L 17.025391 17.9375 C 17.025391 18.148736 16.871785 18.318359 16.681641 18.318359 L 14.886719 18.318359 C 14.696575 18.318359 14.542969 18.148736 14.542969 17.9375 L 14.542969 14.351562 L 13.654297 15.095703 L 13.568359 14.988281 L 13.105469 14.744141 L 13.105469 18.007812 C 13.105469 18.180832 12.951863 18.318359 12.761719 18.318359 L 10.96875 18.318359 C 10.778606 18.318359 10.625 18.180832 10.625 18.007812 L 10.625 13.431641 L 9.9296875 13.064453 L 9.0253906 13.822266 L 9.0253906 17.919922 C 9.0253906 18.181187 8.8717845 18.390625 8.6816406 18.390625 L 6.8867188 18.390625 C 6.6965749 18.390625 6.5429687 18.181187 6.5429688 17.919922 L 6.5429688 15.902344 L 5.015625 17.181641 L 4.3085938 16.292969 L 6.5429688 14.419922 L 6.5429688 5.34375 C 6.5429687 5.0824847 6.6965749 4.8730469 6.8867188 4.8730469 z " />
  <g
     id="layer1" />
  <g
     id="layer2" />
</svg>
