<?xml version="1.0" encoding="UTF-8" standalone="no"?>
<svg
   xmlns:dc="http://purl.org/dc/elements/1.1/"
   xmlns:cc="http://creativecommons.org/ns#"
   xmlns:rdf="http://www.w3.org/1999/02/22-rdf-syntax-ns#"
   xmlns:svg="http://www.w3.org/2000/svg"
   xmlns="http://www.w3.org/2000/svg"
   id="svg16"
   xml:space="preserve"
   enable-background="new 0 0 24.00 24.00"
   viewBox="0 0 30 30"
   height="30"
   width="30"
   version="1.1"><metadata
     id="metadata22"><rdf:RDF><cc:Work
         rdf:about=""><dc:format>image/svg+xml</dc:format><dc:type
           rdf:resource="http://purl.org/dc/dcmitype/StillImage" /><dc:title></dc:title></cc:Work></rdf:RDF></metadata><defs
     id="defs20" /><g
     style="display:inline"
     id="layer2"><path
       id="circle922"
       d="M 15 0 A 15 15 0 0 0 0 15 A 15 15 0 0 0 15 30 A 15 15 0 0 0 30 15 A 15 15 0 0 0 15 0 z M 16.5 6 L 19.5 6 L 13.5 24 L 10.5 24 L 16.5 6 z M 8 11 L 11 11 L 7 15 L 11 19 L 8 19 L 4 15 L 8 11 z M 19 11 L 22 11 L 26 15 L 22 19 L 19 19 L 23 15 L 19 11 z "
       style="display:inline;opacity:1;fill:#86c5f2;fill-opacity:1;stroke:#e6e6e6;stroke-width:0;stroke-miterlimit:4;stroke-dasharray:none;stroke-dashoffset:0;stroke-opacity:1" /></g></svg>